<svg width="1724" height="177" viewBox="0 0 1724 177" fill="none" xmlns="http://www.w3.org/2000/svg">
<circle cx="239" cy="100.376" r="46" fill="white"/>
<path d="M225.625 28.6184L222.038 29.2959L221.918 34.9156L221.799 40.5354L218.251 41.7709C216.299 42.4485 214.545 43.0065 214.306 43.0065C214.106 43.0065 212.472 41.1332 210.679 38.8216C208.885 36.47 207.291 34.6367 207.132 34.7164C205.338 35.4736 199.918 38.8614 199.918 39.2201C199.918 39.4593 200.635 41.6912 201.512 44.1623C202.389 46.5935 203.106 48.8653 203.106 49.1443C203.106 49.6624 197.606 54.1662 197.008 54.1662C196.889 54.1662 194.776 52.8908 192.345 51.3763C189.914 49.8219 187.881 48.5863 187.801 48.5863C187.722 48.5863 186.367 50.0212 184.772 51.7748L181.903 54.9633L183.457 56.8366C184.334 57.9127 185.888 59.8656 186.925 61.2207L188.798 63.7317L186.725 66.8006C185.569 68.5144 184.613 69.9891 184.533 70.0688C184.414 70.1884 176.123 68.4347 174.37 67.8767C173.852 67.7572 173.334 68.5941 172.058 71.7826C171.181 74.0146 170.583 75.9277 170.743 76.0473C170.942 76.1668 172.975 77.5219 175.326 79.0365C180.109 82.1054 179.79 81.2684 178.435 86.8483L177.797 89.4389L172.337 89.9969L166.877 90.5549L166.678 92.189C166.558 93.0658 166.359 95.0188 166.239 96.4536L166 99.124L167.315 99.5226C168.033 99.7617 170.424 100.439 172.616 101.037C174.808 101.635 176.721 102.233 176.841 102.352C177 102.472 177.2 104.186 177.359 106.179L177.598 109.766L173.334 111.719C170.942 112.795 168.631 113.911 168.192 114.19L167.315 114.708L168.431 118.614L169.507 122.52H171.46C172.536 122.48 175.127 122.4 177.2 122.32L180.986 122.161L182.461 125.509L183.895 128.897L179.711 132.882L175.486 136.908L177.797 140.256C179.073 142.129 180.189 143.723 180.269 143.803C180.348 143.883 182.74 142.966 185.649 141.73L190.91 139.458L191.867 140.375C192.385 140.853 193.541 142.089 194.378 143.125L195.972 144.998L193.381 150.18L190.751 155.361L194.138 157.992L197.526 160.662L201.91 156.636L206.255 152.651L209.443 154.444C211.237 155.481 212.672 156.437 212.672 156.676C212.672 156.876 212.313 159.506 211.835 162.455C211.396 165.445 211.157 167.996 211.356 168.155C211.516 168.314 213.349 168.992 215.382 169.63L219.049 170.825L221.081 167.198C222.237 165.206 223.552 162.854 224.07 161.937L224.987 160.343L228.495 160.941C230.408 161.26 232.042 161.539 232.121 161.579C232.161 161.658 232.719 164.249 233.357 167.398L234.473 173.137L238.698 173.257L242.883 173.376L243.321 171.264C243.56 170.108 244.078 167.477 244.477 165.405C245.274 161.1 245.115 161.26 250.097 160.782L252.727 160.503L255.437 165.524C256.952 168.275 258.307 170.626 258.466 170.706C258.626 170.825 260.499 170.267 262.611 169.47C266.039 168.235 266.438 167.956 266.278 167.198C266.198 166.76 265.84 164.568 265.481 162.376C265.162 160.184 264.804 157.912 264.684 157.314C264.485 156.079 264.604 155.999 268.311 153.966L271.141 152.452L274.887 155.8C276.96 157.633 279.032 159.506 279.51 159.905C280.347 160.662 280.387 160.622 283.496 158.191C285.21 156.796 286.645 155.56 286.724 155.401C286.764 155.281 285.569 152.81 284.014 150.02C282.46 147.191 281.264 144.759 281.304 144.6C281.384 144.48 282.54 143.165 283.895 141.69L286.366 138.98L290.67 140.893C293.022 141.93 295.573 143.006 296.25 143.285L297.565 143.843L299.757 140.574C300.953 138.741 301.95 137.067 301.95 136.788C301.95 136.549 301.352 135.871 300.674 135.274C299.957 134.676 297.964 132.842 296.29 131.248L293.221 128.339L294.815 124.911L296.449 121.443L302.507 121.722L308.605 122.041L309.602 118.016L310.598 114.03L305.178 111.639L299.757 109.287L299.877 105.541C299.957 103.468 300.076 101.755 300.156 101.675C300.236 101.595 302.786 100.798 305.895 99.8414C308.964 98.9247 311.595 98.0877 311.714 97.9682C311.914 97.729 311.236 90.3955 310.957 90.1165C310.877 90.0368 308.207 89.7179 305.098 89.3592C301.95 89.0404 299.319 88.6817 299.239 88.6418C299.16 88.5621 298.721 86.8881 298.203 84.8953C297.167 80.6307 296.688 81.4278 302.826 77.3226L307.091 74.4929L306.453 73.0182C304.779 68.9528 303.504 66.8803 302.826 67.0796C302.468 67.1992 300.196 67.7572 297.765 68.3151C295.373 68.8731 293.101 69.4311 292.783 69.5108C292.384 69.6304 291.507 68.634 290.072 66.3223L287.96 62.9744L291.348 58.3511C293.261 55.8402 294.775 53.6481 294.775 53.4886C294.775 53.3292 293.5 51.8944 291.946 50.34L289.116 47.4704L284.333 50.619L279.51 53.7278L277.876 52.5719C277 51.8944 275.565 50.7784 274.688 50.061L273.173 48.7856L274.807 43.5644C275.724 40.7347 276.442 38.2237 276.442 37.9846C276.442 37.4266 269.467 34.0787 268.949 34.3975C268.709 34.5171 267.075 36.5498 265.282 38.8216L262.093 43.0065L258.267 41.6115C256.155 40.8542 254.361 40.2165 254.281 40.2165C254.202 40.2165 254.082 37.6657 254.042 34.5171L253.923 28.8575L249.977 28.3792C247.785 28.1002 245.952 27.9408 245.832 28.0205C245.752 28.1401 244.915 30.4119 243.959 33.1221L242.245 38.0244L238.14 38.144L233.995 38.2636L232.161 33.162C231.045 30.093 230.089 28.0205 229.77 28.0205C229.451 27.9807 227.618 28.2597 225.625 28.6184ZM249.459 60.5033C256.354 62.2969 262.332 65.6846 267.793 70.8659C269.507 72.5 271.101 74.174 271.26 74.5327C271.579 75.0907 270.423 75.8878 263.807 79.6742L255.995 84.1779L253.564 82.8627C252.249 82.1054 249.698 80.6706 247.944 79.6742L244.756 77.8408L244.636 68.7934L244.557 59.7461H245.473C245.991 59.7461 247.785 60.1048 249.459 60.5033ZM233.716 68.9528L233.596 77.7611L228.056 80.9097C225.027 82.6634 222.317 84.0583 222.038 83.9786C220.882 83.6996 207.092 75.4494 207.092 75.0508C207.092 74.1342 212.672 68.634 215.661 66.5615C220.882 62.9346 227.897 60.2243 232.121 60.1845L233.795 60.1446L233.716 68.9528ZM209.124 88.7215L216.657 93.026V100.001V106.976L211.795 109.845C209.085 111.4 205.497 113.472 203.824 114.508L200.755 116.302L199.758 113.233C197.048 104.624 197.128 96.2145 199.957 87.0077C200.396 85.6127 200.954 84.4569 201.193 84.4569C201.432 84.4569 204.979 86.37 209.124 88.7215ZM277.996 86.649C280.268 92.7071 281.025 101.236 279.829 107.534C279.032 111.639 277.717 115.943 277.239 115.943C277.039 115.943 273.452 113.951 269.267 111.519L261.695 107.095V100.041V92.9861L268.988 88.7614C272.974 86.4099 276.442 84.4968 276.721 84.4569C276.96 84.4569 277.558 85.4533 277.996 86.649ZM242.962 89.5186C249.299 91.5513 252.608 99.403 249.698 105.581C247.068 111.161 241.328 113.831 235.589 112.157C233.756 111.639 232.799 111.041 231.005 109.247C228.335 106.577 227.418 104.305 227.418 100.399C227.418 92.3883 235.111 86.9679 242.962 89.5186ZM227.697 120.248L233.596 123.755L233.716 132.842L233.795 141.93L232.121 141.651C227.02 140.853 220.483 138.183 215.661 134.955C213.23 133.321 205.896 126.226 205.896 125.549C205.896 125.349 206.215 125.07 206.613 124.951C206.972 124.831 210.36 122.918 214.067 120.726C217.813 118.534 221.041 116.74 221.32 116.74C221.56 116.74 224.429 118.335 227.697 120.248ZM264.804 121.125C268.789 123.396 272.057 125.469 272.057 125.708C272.057 126.386 266.557 131.926 263.807 133.998C259.064 137.625 251.651 140.893 246.43 141.651L244.557 141.93V132.842V123.715L250.455 120.248C253.684 118.335 256.593 116.82 256.912 116.86C257.271 116.9 260.818 118.813 264.804 121.125Z" fill="#D9532B"/>
<circle cx="1096" cy="101.376" r="46" fill="white"/>
<path d="M1082.62 29.6184L1079.04 30.2959L1078.92 35.9156L1078.8 41.5354L1075.25 42.7709C1073.3 43.4485 1071.54 44.0065 1071.31 44.0065C1071.11 44.0065 1069.47 42.1332 1067.68 39.8216C1065.89 37.47 1064.29 35.6367 1064.13 35.7164C1062.34 36.4736 1056.92 39.8614 1056.92 40.2201C1056.92 40.4593 1057.64 42.6912 1058.51 45.1623C1059.39 47.5935 1060.11 49.8653 1060.11 50.1443C1060.11 50.6624 1054.61 55.1662 1054.01 55.1662C1053.89 55.1662 1051.78 53.8908 1049.34 52.3763C1046.91 50.8219 1044.88 49.5863 1044.8 49.5863C1044.72 49.5863 1043.37 51.0212 1041.77 52.7748L1038.9 55.9633L1040.46 57.8366C1041.33 58.9127 1042.89 60.8656 1043.92 62.2207L1045.8 64.7317L1043.73 67.8006C1042.57 69.5144 1041.61 70.9891 1041.53 71.0688C1041.41 71.1884 1033.12 69.4347 1031.37 68.8767C1030.85 68.7572 1030.33 69.5941 1029.06 72.7826C1028.18 75.0146 1027.58 76.9277 1027.74 77.0473C1027.94 77.1668 1029.97 78.5219 1032.33 80.0365C1037.11 83.1054 1036.79 82.2684 1035.44 87.8483L1034.8 90.4389L1029.34 90.9969L1023.88 91.5549L1023.68 93.189C1023.56 94.0658 1023.36 96.0188 1023.24 97.4536L1023 100.124L1024.32 100.523C1025.03 100.762 1027.42 101.439 1029.62 102.037C1031.81 102.635 1033.72 103.233 1033.84 103.352C1034 103.472 1034.2 105.186 1034.36 107.179L1034.6 110.766L1030.33 112.719C1027.94 113.795 1025.63 114.911 1025.19 115.19L1024.32 115.708L1025.43 119.614L1026.51 123.52H1028.46C1029.54 123.48 1032.13 123.4 1034.2 123.32L1037.99 123.161L1039.46 126.509L1040.9 129.897L1036.71 133.882L1032.49 137.908L1034.8 141.256C1036.07 143.129 1037.19 144.723 1037.27 144.803C1037.35 144.883 1039.74 143.966 1042.65 142.73L1047.91 140.458L1048.87 141.375C1049.38 141.853 1050.54 143.089 1051.38 144.125L1052.97 145.998L1050.38 151.18L1047.75 156.361L1051.14 158.992L1054.53 161.662L1058.91 157.636L1063.25 153.651L1066.44 155.444C1068.24 156.481 1069.67 157.437 1069.67 157.676C1069.67 157.876 1069.31 160.506 1068.83 163.455C1068.4 166.445 1068.16 168.996 1068.36 169.155C1068.52 169.314 1070.35 169.992 1072.38 170.63L1076.05 171.825L1078.08 168.198C1079.24 166.206 1080.55 163.854 1081.07 162.937L1081.99 161.343L1085.49 161.941C1087.41 162.26 1089.04 162.539 1089.12 162.579C1089.16 162.658 1089.72 165.249 1090.36 168.398L1091.47 174.137L1095.7 174.257L1099.88 174.376L1100.32 172.264C1100.56 171.108 1101.08 168.477 1101.48 166.405C1102.27 162.1 1102.11 162.26 1107.1 161.782L1109.73 161.503L1112.44 166.524C1113.95 169.275 1115.31 171.626 1115.47 171.706C1115.63 171.825 1117.5 171.267 1119.61 170.47C1123.04 169.235 1123.44 168.956 1123.28 168.198C1123.2 167.76 1122.84 165.568 1122.48 163.376C1122.16 161.184 1121.8 158.912 1121.68 158.314C1121.48 157.079 1121.6 156.999 1125.31 154.966L1128.14 153.452L1131.89 156.8C1133.96 158.633 1136.03 160.506 1136.51 160.905C1137.35 161.662 1137.39 161.622 1140.5 159.191C1142.21 157.796 1143.64 156.56 1143.72 156.401C1143.76 156.281 1142.57 153.81 1141.01 151.02C1139.46 148.191 1138.26 145.759 1138.3 145.6C1138.38 145.48 1139.54 144.165 1140.89 142.69L1143.37 139.98L1147.67 141.893C1150.02 142.93 1152.57 144.006 1153.25 144.285L1154.57 144.843L1156.76 141.574C1157.95 139.741 1158.95 138.067 1158.95 137.788C1158.95 137.549 1158.35 136.871 1157.67 136.274C1156.96 135.676 1154.96 133.842 1153.29 132.248L1150.22 129.339L1151.82 125.911L1153.45 122.443L1159.51 122.722L1165.61 123.041L1166.6 119.016L1167.6 115.03L1162.18 112.639L1156.76 110.287L1156.88 106.541C1156.96 104.468 1157.08 102.755 1157.16 102.675C1157.24 102.595 1159.79 101.798 1162.9 100.841C1165.96 99.9247 1168.59 99.0877 1168.71 98.9682C1168.91 98.729 1168.24 91.3955 1167.96 91.1165C1167.88 91.0368 1165.21 90.7179 1162.1 90.3592C1158.95 90.0404 1156.32 89.6817 1156.24 89.6418C1156.16 89.5621 1155.72 87.8881 1155.2 85.8953C1154.17 81.6307 1153.69 82.4278 1159.83 78.3226L1164.09 75.4929L1163.45 74.0182C1161.78 69.9528 1160.5 67.8803 1159.83 68.0796C1159.47 68.1992 1157.2 68.7572 1154.76 69.3151C1152.37 69.8731 1150.1 70.4311 1149.78 70.5108C1149.38 70.6304 1148.51 69.634 1147.07 67.3223L1144.96 63.9744L1148.35 59.3511C1150.26 56.8402 1151.78 54.6481 1151.78 54.4886C1151.78 54.3292 1150.5 52.8944 1148.95 51.34L1146.12 48.4704L1141.33 51.619L1136.51 54.7278L1134.88 53.5719C1134 52.8944 1132.56 51.7784 1131.69 51.061L1130.17 49.7856L1131.81 44.5644C1132.72 41.7347 1133.44 39.2237 1133.44 38.9846C1133.44 38.4266 1126.47 35.0787 1125.95 35.3975C1125.71 35.5171 1124.08 37.5498 1122.28 39.8216L1119.09 44.0065L1115.27 42.6115C1113.15 41.8542 1111.36 41.2165 1111.28 41.2165C1111.2 41.2165 1111.08 38.6657 1111.04 35.5171L1110.92 29.8575L1106.98 29.3792C1104.78 29.1002 1102.95 28.9408 1102.83 29.0205C1102.75 29.1401 1101.92 31.4119 1100.96 34.1221L1099.24 39.0244L1095.14 39.144L1090.99 39.2636L1089.16 34.162C1088.05 31.093 1087.09 29.0205 1086.77 29.0205C1086.45 28.9807 1084.62 29.2597 1082.62 29.6184ZM1106.46 61.5033C1113.35 63.2969 1119.33 66.6846 1124.79 71.8659C1126.51 73.5 1128.1 75.174 1128.26 75.5327C1128.58 76.0907 1127.42 76.8878 1120.81 80.6742L1113 85.1779L1110.56 83.8627C1109.25 83.1054 1106.7 81.6706 1104.94 80.6742L1101.76 78.8408L1101.64 69.7934L1101.56 60.7461H1102.47C1102.99 60.7461 1104.78 61.1048 1106.46 61.5033ZM1090.72 69.9528L1090.6 78.7611L1085.06 81.9097C1082.03 83.6634 1079.32 85.0583 1079.04 84.9786C1077.88 84.6996 1064.09 76.4494 1064.09 76.0508C1064.09 75.1342 1069.67 69.634 1072.66 67.5615C1077.88 63.9346 1084.9 61.2243 1089.12 61.1845L1090.8 61.1446L1090.72 69.9528ZM1066.12 89.7215L1073.66 94.026V101.001V107.976L1068.79 110.845C1066.08 112.4 1062.5 114.472 1060.82 115.508L1057.75 117.302L1056.76 114.233C1054.05 105.624 1054.13 97.2145 1056.96 88.0077C1057.4 86.6127 1057.95 85.4569 1058.19 85.4569C1058.43 85.4569 1061.98 87.37 1066.12 89.7215ZM1135 87.649C1137.27 93.7071 1138.03 102.236 1136.83 108.534C1136.03 112.639 1134.72 116.943 1134.24 116.943C1134.04 116.943 1130.45 114.951 1126.27 112.519L1118.69 108.095V101.041V93.9861L1125.99 89.7614C1129.97 87.4099 1133.44 85.4968 1133.72 85.4569C1133.96 85.4569 1134.56 86.4533 1135 87.649ZM1099.96 90.5186C1106.3 92.5513 1109.61 100.403 1106.7 106.581C1104.07 112.161 1098.33 114.831 1092.59 113.157C1090.76 112.639 1089.8 112.041 1088.01 110.247C1085.34 107.577 1084.42 105.305 1084.42 101.399C1084.42 93.3883 1092.11 87.9679 1099.96 90.5186ZM1084.7 121.248L1090.6 124.755L1090.72 133.842L1090.8 142.93L1089.12 142.651C1084.02 141.853 1077.48 139.183 1072.66 135.955C1070.23 134.321 1062.9 127.226 1062.9 126.549C1062.9 126.349 1063.21 126.07 1063.61 125.951C1063.97 125.831 1067.36 123.918 1071.07 121.726C1074.81 119.534 1078.04 117.74 1078.32 117.74C1078.56 117.74 1081.43 119.335 1084.7 121.248ZM1121.8 122.125C1125.79 124.396 1129.06 126.469 1129.06 126.708C1129.06 127.386 1123.56 132.926 1120.81 134.998C1116.06 138.625 1108.65 141.893 1103.43 142.651L1101.56 142.93V133.842V124.715L1107.46 121.248C1110.68 119.335 1113.59 117.82 1113.91 117.86C1114.27 117.9 1117.82 119.813 1121.8 122.125Z" fill="#D9532B"/>
<circle cx="814.148" cy="105.148" r="40.7707" fill="white"/>
<path d="M817.642 55.7722L816.365 59.5735L813.347 59.4864L810.3 59.3994L808.995 55.8013L807.689 52.2321L806.354 52.4062C805.629 52.4933 804.236 52.7254 803.249 52.8995L801.45 53.2187L801.363 57.2811L801.276 61.3726L798.606 62.3301L795.966 63.2877L793.441 60.1248C792.048 58.3548 790.83 56.991 790.714 57.049C787.203 59.0222 785.752 59.9797 785.752 60.3279C785.752 60.5891 786.216 62.2141 786.767 63.9261C787.319 65.6671 787.783 67.2631 787.783 67.4952C787.783 67.9014 783.866 71.1514 783.372 71.1514C783.227 71.1514 781.66 70.2228 779.89 69.0912C778.12 67.9595 776.582 67.147 776.495 67.2921C776.379 67.4082 775.393 68.5108 774.319 69.7585C773.245 70.9773 772.491 72.0509 772.636 72.138C772.781 72.225 773.913 73.6178 775.16 75.2138L777.366 78.1155L775.828 80.582C774.783 82.265 774.145 82.9904 773.855 82.9034C773.39 82.7583 766.687 81.3074 766.484 81.3074C766.426 81.3074 766.049 82.1199 765.643 83.1065C765.237 84.1221 764.714 85.3988 764.453 86.0082L763.989 87.0528L767.268 89.1711C769.038 90.3028 770.576 91.2893 770.634 91.3474C770.779 91.4635 769.763 96.2513 769.531 96.6285C769.415 96.8026 767.587 97.1508 765.44 97.441C763.292 97.7022 761.493 97.9633 761.435 97.9923C761.377 98.0214 761.261 99.4432 761.174 101.126L761 104.173L762.277 104.521C765.643 105.392 768.719 106.262 768.777 106.32C768.806 106.378 768.922 107.626 769.038 109.106L769.241 111.805L766.542 113.052C765.062 113.749 763.35 114.532 762.77 114.764L761.696 115.229L762.074 116.621C762.306 117.376 762.712 118.769 762.973 119.726L763.437 121.438L765.672 121.235C766.891 121.148 768.748 120.974 769.792 120.887L771.678 120.713L772.81 123.266L773.971 125.791L770.866 128.664L767.761 131.565L769.531 134.148C770.489 135.57 771.33 136.73 771.417 136.73C771.504 136.73 773.216 136.005 775.189 135.134C777.192 134.264 778.904 133.567 779.02 133.567C779.136 133.596 780.064 134.496 781.08 135.599C782.444 137.05 782.85 137.688 782.647 137.949C782.473 138.152 781.544 139.835 780.558 141.721L778.788 145.087L781.254 147.031C784.127 149.266 783.459 149.44 787.638 145.581L790.162 143.288L792.629 144.536C794.747 145.61 795.066 145.9 794.921 146.422C794.457 148.337 793.819 154.199 794.051 154.402C794.196 154.547 795.502 155.04 796.981 155.534L799.651 156.404L801.624 152.632L803.597 148.86L805.309 149.063C806.238 149.15 807.486 149.411 808.066 149.585L809.111 149.933L809.952 154.054L810.794 158.203H813.898H817.003L817.642 154.199C818.019 152.022 818.338 150.078 818.396 149.904C818.483 149.643 822.371 148.918 823.677 148.918C823.851 148.918 824.896 150.572 825.999 152.574C827.072 154.576 828.117 156.288 828.291 156.375C828.668 156.52 833.572 154.779 833.804 154.402C833.891 154.257 833.688 152.284 833.34 150.02C832.963 147.583 832.818 145.842 832.992 145.668C833.137 145.523 834.211 144.913 835.371 144.304L837.489 143.172L840.71 146.045C842.48 147.612 844.018 148.918 844.105 148.918C844.25 148.918 848.516 145.726 848.951 145.319C848.98 145.261 848.052 143.491 846.862 141.344L844.686 137.485L846.224 135.744C847.065 134.786 847.965 133.887 848.197 133.713C848.545 133.509 849.677 133.829 852.694 135.047C854.9 135.947 856.757 136.643 856.873 136.585C856.96 136.498 857.714 135.367 858.556 134.003L860.065 131.536L858.092 129.679C857.018 128.664 855.538 127.329 854.842 126.69L853.565 125.53L854.755 123.005L855.944 120.481L860.384 120.568L864.824 120.626L865.462 118.304C865.81 117.028 866.1 115.78 866.1 115.519C866.129 115.2 864.969 114.532 862.299 113.313L858.44 111.601L858.353 108.671L858.266 105.74L859.804 105.305C860.645 105.044 862.618 104.492 864.185 104.086C866.826 103.332 867 103.244 867 102.519C866.971 101.649 866.449 97.499 866.333 97.383C866.304 97.354 864.359 97.1508 862.038 96.9477L857.773 96.5995L857.163 94.104C856.844 92.7112 856.554 91.4054 856.554 91.1733C856.554 90.9411 857.918 89.8385 859.543 88.7648C861.168 87.6622 862.734 86.6176 863.025 86.4145C863.489 86.0662 863.431 85.8631 862.299 83.3676C861.487 81.5686 860.964 80.7271 860.616 80.7271C860.355 80.7271 858.817 81.0463 857.25 81.4235C852.114 82.6712 852.811 82.8163 851.157 80.2338C850.373 79.0151 849.706 77.8834 849.648 77.7673C849.59 77.6512 850.75 75.9682 852.23 74.0531L854.9 70.542L852.782 68.5979C851.621 67.5242 850.547 66.6247 850.431 66.5667C850.315 66.5086 848.835 67.4082 847.123 68.5398C845.44 69.6715 843.873 70.6581 843.641 70.7451C843.409 70.8612 842.335 70.1648 841.03 69.1202C839.84 68.1046 838.853 67.2921 838.853 67.2631C838.853 67.2631 839.434 65.435 840.13 63.2297L841.407 59.2253L839.172 58.1226C835.69 56.3526 836.097 56.2655 833.63 59.4574C832.44 60.9953 831.338 62.4172 831.164 62.6493C830.932 62.9685 830.351 62.8524 827.972 62.069L825.07 61.0824L824.983 56.991C824.954 54.7276 824.809 52.8705 824.693 52.8705C824.49 52.8705 821.443 52.4062 819.818 52.1451L818.918 52L817.642 55.7722ZM817.671 66.5086C820.166 66.9149 821.095 67.2921 822.255 68.3657C823.851 69.8456 824.113 72.4281 823.039 76.1714C821.704 80.7271 817.613 85.0797 814.624 85.0797C812.041 85.0797 809.778 82.7293 807.108 77.274C805.861 74.7205 805.629 73.937 805.541 72.254C805.425 70.513 805.512 70.1358 806.151 69.1492C807.718 66.7698 812.448 65.6961 817.671 66.5086ZM790.249 80.0597C790.714 80.3208 791.99 81.3945 793.035 82.4391C795.124 84.5573 797.185 88.1845 797.504 90.3898C797.91 93.0594 796.517 95.729 794.196 96.8026C793.035 97.3249 792.339 97.412 788.799 97.412C783.691 97.412 782.125 97.0348 780.355 95.4098C779.31 94.4812 778.933 93.8719 778.642 92.6822C778.149 90.7961 778.497 89.2291 780.035 86.4725C783.546 80.2048 786.68 78.2316 790.249 80.0597ZM843.293 80.8141C844.773 81.4525 846.34 83.4547 848.023 86.9077C849.764 90.4769 850.17 92.421 849.59 94.1911C848.574 97.3249 845.614 98.7178 839.985 98.7178C833.92 98.7178 831.193 96.9187 831.222 92.9143C831.28 89.2291 835.429 82.323 838.418 80.9882C839.782 80.3498 841.987 80.2918 843.293 80.8141ZM817.206 96.4254C819.325 97.2089 821.501 99.2111 822.517 101.271C824.083 104.492 823.329 108.787 820.63 111.572C817.322 114.996 811.896 115.345 808.124 112.356C806.006 110.673 804.787 108.032 804.758 105.131C804.758 103.302 804.903 102.635 805.57 101.271C807.718 96.8897 812.796 94.7714 817.206 96.4254ZM792.803 112.066C797.446 113.807 797.997 117.898 794.428 124.021C791.99 128.199 789.93 129.766 786.912 129.766C783.866 129.766 782.56 128.606 779.948 123.557C778.642 121.003 778.352 120.191 778.265 118.624C778.12 116.186 778.555 114.909 780.035 113.662C781.805 112.124 784.069 111.514 787.986 111.514C790.569 111.485 791.555 111.601 792.803 112.066ZM842.045 112.965C844.541 113.255 846.63 114.01 847.675 114.909C848.4 115.577 849.59 118.13 849.59 119.088C849.59 120.394 848.748 122.512 847.181 125.123C843.989 130.405 841.436 131.913 838.128 130.376C834.472 128.693 830.438 122.686 830.438 118.943C830.467 116.041 832.092 113.894 834.791 113.255C837.489 112.617 838.911 112.559 842.045 112.965ZM815.959 126.081C819.209 127.793 823.155 135.889 822.488 139.429C822.226 140.88 820.892 142.331 819.064 143.143C817.671 143.782 817.119 143.84 813.318 143.84C809.372 143.84 809.024 143.782 807.457 143.056C805.048 141.924 804.178 140.503 804.207 137.775C804.265 135.454 804.961 133.335 806.586 130.521C809.169 126.052 812.709 124.369 815.959 126.081Z" fill="#D9532B"/>
<circle cx="1671.15" cy="106.148" r="40.7707" fill="white"/>
<path d="M1674.64 56.7722L1673.36 60.5735L1670.35 60.4864L1667.3 60.3994L1665.99 56.8013L1664.69 53.2321L1663.35 53.4062C1662.63 53.4933 1661.24 53.7254 1660.25 53.8995L1658.45 54.2187L1658.36 58.2811L1658.28 62.3726L1655.61 63.3301L1652.97 64.2877L1650.44 61.1248C1649.05 59.3548 1647.83 57.991 1647.71 58.049C1644.2 60.0222 1642.75 60.9797 1642.75 61.3279C1642.75 61.5891 1643.22 63.2141 1643.77 64.9261C1644.32 66.6671 1644.78 68.2631 1644.78 68.4952C1644.78 68.9014 1640.87 72.1514 1640.37 72.1514C1640.23 72.1514 1638.66 71.2228 1636.89 70.0912C1635.12 68.9595 1633.58 68.147 1633.5 68.2921C1633.38 68.4082 1632.39 69.5108 1631.32 70.7585C1630.25 71.9773 1629.49 73.0509 1629.64 73.138C1629.78 73.225 1630.91 74.6178 1632.16 76.2138L1634.37 79.1155L1632.83 81.582C1631.78 83.265 1631.14 83.9904 1630.85 83.9034C1630.39 83.7583 1623.69 82.3074 1623.48 82.3074C1623.43 82.3074 1623.05 83.1199 1622.64 84.1065C1622.24 85.1221 1621.71 86.3988 1621.45 87.0082L1620.99 88.0528L1624.27 90.1711C1626.04 91.3028 1627.58 92.2893 1627.63 92.3474C1627.78 92.4635 1626.76 97.2513 1626.53 97.6285C1626.42 97.8026 1624.59 98.1508 1622.44 98.441C1620.29 98.7022 1618.49 98.9633 1618.44 98.9923C1618.38 99.0214 1618.26 100.443 1618.17 102.126L1618 105.173L1619.28 105.521C1622.64 106.392 1625.72 107.262 1625.78 107.32C1625.81 107.378 1625.92 108.626 1626.04 110.106L1626.24 112.805L1623.54 114.052C1622.06 114.749 1620.35 115.532 1619.77 115.764L1618.7 116.229L1619.07 117.621C1619.31 118.376 1619.71 119.769 1619.97 120.726L1620.44 122.438L1622.67 122.235C1623.89 122.148 1625.75 121.974 1626.79 121.887L1628.68 121.713L1629.81 124.266L1630.97 126.791L1627.87 129.664L1624.76 132.565L1626.53 135.148C1627.49 136.57 1628.33 137.73 1628.42 137.73C1628.5 137.73 1630.22 137.005 1632.19 136.134C1634.19 135.264 1635.9 134.567 1636.02 134.567C1636.14 134.596 1637.06 135.496 1638.08 136.599C1639.44 138.05 1639.85 138.688 1639.65 138.949C1639.47 139.152 1638.54 140.835 1637.56 142.721L1635.79 146.087L1638.25 148.031C1641.13 150.266 1640.46 150.44 1644.64 146.581L1647.16 144.288L1649.63 145.536C1651.75 146.61 1652.07 146.9 1651.92 147.422C1651.46 149.337 1650.82 155.199 1651.05 155.402C1651.2 155.547 1652.5 156.04 1653.98 156.534L1656.65 157.404L1658.62 153.632L1660.6 149.86L1662.31 150.063C1663.24 150.15 1664.49 150.411 1665.07 150.585L1666.11 150.933L1666.95 155.054L1667.79 159.203H1670.9H1674L1674.64 155.199C1675.02 153.022 1675.34 151.078 1675.4 150.904C1675.48 150.643 1679.37 149.918 1680.68 149.918C1680.85 149.918 1681.9 151.572 1683 153.574C1684.07 155.576 1685.12 157.288 1685.29 157.375C1685.67 157.52 1690.57 155.779 1690.8 155.402C1690.89 155.257 1690.69 153.284 1690.34 151.02C1689.96 148.583 1689.82 146.842 1689.99 146.668C1690.14 146.523 1691.21 145.913 1692.37 145.304L1694.49 144.172L1697.71 147.045C1699.48 148.612 1701.02 149.918 1701.11 149.918C1701.25 149.918 1705.52 146.726 1705.95 146.319C1705.98 146.261 1705.05 144.491 1703.86 142.344L1701.69 138.485L1703.22 136.744C1704.07 135.786 1704.96 134.887 1705.2 134.713C1705.55 134.509 1706.68 134.829 1709.69 136.047C1711.9 136.947 1713.76 137.643 1713.87 137.585C1713.96 137.498 1714.71 136.367 1715.56 135.003L1717.06 132.536L1715.09 130.679C1714.02 129.664 1712.54 128.329 1711.84 127.69L1710.57 126.53L1711.75 124.005L1712.94 121.481L1717.38 121.568L1721.82 121.626L1722.46 119.304C1722.81 118.028 1723.1 116.78 1723.1 116.519C1723.13 116.2 1721.97 115.532 1719.3 114.313L1715.44 112.601L1715.35 109.671L1715.27 106.74L1716.8 106.305C1717.65 106.044 1719.62 105.492 1721.19 105.086C1723.83 104.332 1724 104.244 1724 103.519C1723.97 102.649 1723.45 98.499 1723.33 98.383C1723.3 98.354 1721.36 98.1508 1719.04 97.9477L1714.77 97.5995L1714.16 95.104C1713.84 93.7112 1713.55 92.4054 1713.55 92.1733C1713.55 91.9411 1714.92 90.8385 1716.54 89.7648C1718.17 88.6622 1719.73 87.6176 1720.02 87.4145C1720.49 87.0662 1720.43 86.8631 1719.3 84.3676C1718.49 82.5686 1717.96 81.7271 1717.62 81.7271C1717.36 81.7271 1715.82 82.0463 1714.25 82.4235C1709.11 83.6712 1709.81 83.8163 1708.16 81.2338C1707.37 80.0151 1706.71 78.8834 1706.65 78.7673C1706.59 78.6512 1707.75 76.9682 1709.23 75.0531L1711.9 71.542L1709.78 69.5979C1708.62 68.5242 1707.55 67.6247 1707.43 67.5667C1707.32 67.5086 1705.84 68.4082 1704.12 69.5398C1702.44 70.6715 1700.87 71.6581 1700.64 71.7451C1700.41 71.8612 1699.34 71.1648 1698.03 70.1202C1696.84 69.1046 1695.85 68.2921 1695.85 68.2631C1695.85 68.2631 1696.43 66.435 1697.13 64.2297L1698.41 60.2253L1696.17 59.1226C1692.69 57.3526 1693.1 57.2655 1690.63 60.4574C1689.44 61.9953 1688.34 63.4172 1688.16 63.6493C1687.93 63.9685 1687.35 63.8524 1684.97 63.069L1682.07 62.0824L1681.98 57.991C1681.95 55.7276 1681.81 53.8705 1681.69 53.8705C1681.49 53.8705 1678.44 53.4062 1676.82 53.1451L1675.92 53L1674.64 56.7722ZM1674.67 67.5086C1677.17 67.9149 1678.09 68.2921 1679.26 69.3657C1680.85 70.8456 1681.11 73.4281 1680.04 77.1714C1678.7 81.7271 1674.61 86.0797 1671.62 86.0797C1669.04 86.0797 1666.78 83.7293 1664.11 78.274C1662.86 75.7205 1662.63 74.937 1662.54 73.254C1662.43 71.513 1662.51 71.1358 1663.15 70.1492C1664.72 67.7698 1669.45 66.6961 1674.67 67.5086ZM1647.25 81.0597C1647.71 81.3208 1648.99 82.3945 1650.04 83.4391C1652.12 85.5573 1654.18 89.1845 1654.5 91.3898C1654.91 94.0594 1653.52 96.729 1651.2 97.8026C1650.04 98.3249 1649.34 98.412 1645.8 98.412C1640.69 98.412 1639.12 98.0348 1637.35 96.4098C1636.31 95.4812 1635.93 94.8719 1635.64 93.6822C1635.15 91.7961 1635.5 90.2291 1637.04 87.4725C1640.55 81.2048 1643.68 79.2316 1647.25 81.0597ZM1700.29 81.8141C1701.77 82.4525 1703.34 84.4547 1705.02 87.9077C1706.76 91.4769 1707.17 93.421 1706.59 95.1911C1705.57 98.3249 1702.61 99.7178 1696.98 99.7178C1690.92 99.7178 1688.19 97.9187 1688.22 93.9143C1688.28 90.2291 1692.43 83.323 1695.42 81.9882C1696.78 81.3498 1698.99 81.2918 1700.29 81.8141ZM1674.21 97.4254C1676.32 98.2089 1678.5 100.211 1679.52 102.271C1681.08 105.492 1680.33 109.787 1677.63 112.572C1674.32 115.996 1668.9 116.345 1665.12 113.356C1663.01 111.673 1661.79 109.032 1661.76 106.131C1661.76 104.302 1661.9 103.635 1662.57 102.271C1664.72 97.8897 1669.8 95.7714 1674.21 97.4254ZM1649.8 113.066C1654.45 114.807 1655 118.898 1651.43 125.021C1648.99 129.199 1646.93 130.766 1643.91 130.766C1640.87 130.766 1639.56 129.606 1636.95 124.557C1635.64 122.003 1635.35 121.191 1635.27 119.624C1635.12 117.186 1635.56 115.909 1637.04 114.662C1638.81 113.124 1641.07 112.514 1644.99 112.514C1647.57 112.485 1648.56 112.601 1649.8 113.066ZM1699.05 113.965C1701.54 114.255 1703.63 115.01 1704.67 115.909C1705.4 116.577 1706.59 119.13 1706.59 120.088C1706.59 121.394 1705.75 123.512 1704.18 126.123C1700.99 131.405 1698.44 132.913 1695.13 131.376C1691.47 129.693 1687.44 123.686 1687.44 119.943C1687.47 117.041 1689.09 114.894 1691.79 114.255C1694.49 113.617 1695.91 113.559 1699.05 113.965ZM1672.96 127.081C1676.21 128.793 1680.15 136.889 1679.49 140.429C1679.23 141.88 1677.89 143.331 1676.06 144.143C1674.67 144.782 1674.12 144.84 1670.32 144.84C1666.37 144.84 1666.02 144.782 1664.46 144.056C1662.05 142.924 1661.18 141.503 1661.21 138.775C1661.26 136.454 1661.96 134.335 1663.59 131.521C1666.17 127.052 1669.71 125.369 1672.96 127.081Z" fill="#D9532B"/>
<circle cx="584.981" cy="109.322" r="39.2762" fill="white"/>
<path d="M572.909 43.6416L569.196 44.3333L569.087 49.4663L568.978 54.5994L565.629 55.8007L562.279 56.9657L559.112 52.9976L555.945 48.9931L554.634 49.7576C553.906 50.1944 552.414 51.0317 551.322 51.6506C550.229 52.2695 549.283 52.8156 549.21 52.852C549.137 52.8884 549.756 54.9998 550.557 57.5482C551.394 60.0965 552.05 62.39 552.013 62.6084C552.013 62.8268 550.812 63.9554 549.319 65.0839L546.662 67.159L542.584 64.6107C540.364 63.2273 538.398 62.0623 538.252 61.9895C538.07 61.9531 536.796 63.2273 535.376 64.7927L532.828 67.6686L535.85 71.746L538.871 75.8233L536.905 78.8085C535.231 81.3204 534.794 81.7208 534.102 81.5752C533.665 81.466 531.517 80.9927 529.333 80.4831C527.149 79.9734 525.329 79.6094 525.256 79.6822C525.074 79.8278 522.198 86.5626 522.198 86.7447C522.198 86.8175 524.091 88.128 526.421 89.6206C528.787 91.186 530.571 92.5694 530.462 92.8242C530.352 93.0427 530.025 94.5353 529.661 96.1371C529.297 97.7389 528.969 99.0858 528.933 99.1586C528.86 99.2679 520.196 100.324 519.395 100.324C518.885 100.324 518.63 101.634 518.448 105.493L518.303 108.26L520.523 108.879C521.761 109.206 523.909 109.789 525.365 110.226C528.314 111.063 528.132 110.845 528.569 115.322L528.787 117.761L524.309 120.018C521.834 121.256 519.759 122.312 519.686 122.385C519.504 122.567 521.142 129.593 521.433 129.848C521.543 129.957 523.872 129.848 526.566 129.629C529.26 129.374 531.59 129.229 531.699 129.302C531.809 129.374 532.5 130.794 533.265 132.469L534.612 135.527L532.5 137.493C531.372 138.585 529.588 140.223 528.605 141.133L526.821 142.808L528.969 145.939C530.134 147.686 531.299 149.106 531.554 149.106C531.809 149.106 533.92 148.268 536.286 147.286C538.653 146.266 540.728 145.465 540.946 145.465C541.128 145.465 542.33 146.594 543.531 147.941L545.752 150.416L543.203 155.076C541.82 157.661 540.837 159.845 541.019 159.991C541.201 160.1 542.621 161.156 544.186 162.321L547.026 164.469L548.191 163.413C548.81 162.867 550.484 161.301 551.904 159.954C553.36 158.571 554.744 157.479 554.998 157.479C555.29 157.479 556.709 158.134 558.166 158.935C561.187 160.646 561.042 160.1 560.095 166.58C559.695 169.092 559.513 171.24 559.658 171.349C559.767 171.495 561.26 172.041 562.971 172.587C564.682 173.133 566.247 173.679 566.466 173.752C566.721 173.825 567.958 171.822 569.342 169.238C570.652 166.689 571.817 164.541 571.89 164.469C571.963 164.396 573.492 164.541 575.312 164.76L578.589 165.233L578.989 167.09C579.171 168.109 579.644 170.512 580.008 172.405L580.627 175.863L584.523 175.972C587.981 176.045 588.418 176.009 588.6 175.426C588.709 175.062 589.146 172.732 589.546 170.257C589.983 167.745 590.384 165.597 590.493 165.451C590.566 165.306 591.84 165.015 593.296 164.76C594.716 164.541 596.172 164.25 596.5 164.177C596.973 164.032 597.737 165.197 599.776 168.946C601.232 171.64 602.543 173.861 602.652 173.861C602.761 173.861 604.399 173.315 606.293 172.623C609.096 171.64 609.751 171.24 609.678 170.694C609.605 170.33 609.241 167.854 608.841 165.16C608.44 162.503 608.149 160.246 608.186 160.209C608.258 160.173 609.605 159.445 611.171 158.607C614.52 156.824 613.646 156.496 618.998 161.374C620.818 163.049 622.456 164.396 622.638 164.396C623.002 164.396 628.245 160.1 628.427 159.663C628.463 159.518 627.953 158.389 627.262 157.188C626.57 155.95 625.369 153.766 624.64 152.346L623.293 149.797L625.733 147.322L628.208 144.846L633.341 146.958L638.474 149.033L640.404 146.157C641.459 144.592 642.333 143.172 642.333 142.99C642.333 142.808 640.622 140.951 638.511 138.876C634.215 134.653 634.361 135.126 636.144 131.122L637.273 128.61L641.168 128.865C643.316 129.01 645.828 129.192 646.738 129.338L648.413 129.52L649.214 126.316C649.65 124.533 650.087 122.822 650.16 122.494C650.306 122.094 649.177 121.438 645.537 119.836C642.879 118.672 640.549 117.579 640.367 117.434C640.185 117.252 640.258 115.65 640.513 113.648L640.986 110.153L642.479 109.752C643.28 109.498 645.61 108.879 647.612 108.333L651.252 107.35L651.143 103.746C651.07 101.743 650.888 100.032 650.779 99.8867C650.633 99.7775 648.158 99.4499 645.245 99.1586L639.967 98.6854L639.13 95.409C638.693 93.5887 638.401 91.9505 638.474 91.6957C638.583 91.4773 640.404 90.0575 642.588 88.6013C644.736 87.1451 646.665 85.8346 646.847 85.6889C647.139 85.5069 644.881 79.6094 644.19 78.7721C644.081 78.6264 641.605 79.0997 638.729 79.7914C635.853 80.4831 633.45 80.9927 633.414 80.9563C632.613 79.8642 629.592 75.168 629.592 74.986C629.592 74.8768 630.975 72.9109 632.686 70.6902C634.397 68.4331 635.78 66.4673 635.78 66.2853C635.78 66.1032 634.615 64.7563 633.196 63.3365L630.611 60.7154L626.534 63.3365C624.313 64.7927 622.311 66.0668 622.056 66.2125C621.765 66.3945 618.197 63.9918 616.158 62.2444C616.085 62.1715 616.704 59.8781 617.542 57.1841C618.415 54.4902 618.998 52.1239 618.852 51.9054C618.597 51.505 613.064 48.629 612.518 48.629C612.336 48.629 610.843 50.4128 609.169 52.6335C605.71 57.1477 606.402 56.9293 601.56 55.1455L598.83 54.1625L598.72 49.0295L598.611 43.9328L597.446 43.7508C594.133 43.2047 591.512 42.9135 591.33 43.0227C591.185 43.0955 590.384 45.207 589.51 47.7189L587.908 52.2695L584.086 52.1967L580.263 52.0875L578.625 47.6461C577.715 45.207 576.878 43.1319 576.805 43.0591C576.696 42.9863 574.948 43.2775 572.909 43.6416ZM591.803 72.11C607.421 75.35 618.852 86.599 622.165 101.889C622.929 105.457 622.929 112.774 622.129 116.524C619.471 129.156 611.171 139.495 599.776 144.41C594.388 146.703 590.857 147.431 584.814 147.431C578.771 147.431 575.239 146.703 569.852 144.41C552.596 136.983 543.422 117.579 548.446 99.1951C549.574 95.0085 552.741 88.9289 555.581 85.3977C561.151 78.5536 569.888 73.3842 578.407 71.9644C581.574 71.4183 588.928 71.5275 591.803 72.11Z" fill="#D9532B"/>
<path d="M579.535 76.4786C569.815 78.044 560.787 84.3784 555.909 93.1519C553.069 98.2485 551.394 105.784 551.831 111.427C552.996 126.098 562.607 137.711 576.696 141.534C580.809 142.626 588.891 142.626 593.005 141.534C596.245 140.624 601.05 138.439 603.599 136.728C613.683 129.775 619.507 117.179 617.978 105.529C616.923 97.5204 613.792 91.3317 607.931 85.5797C604.327 82.0485 600.249 79.5366 595.48 77.8984C589.765 75.9689 585.178 75.5685 579.535 76.4786ZM590.02 95.591C600.067 99.3771 602.652 113.247 594.607 120.492C585.942 128.282 571.999 123.55 569.888 112.046C568.577 104.729 573.783 96.7195 581.064 94.8629C583.212 94.3532 587.653 94.6809 590.02 95.591Z" fill="#D9532B"/>
<circle cx="1441.98" cy="110.322" r="39.2762" fill="white"/>
<path d="M1429.91 44.6416L1426.2 45.3333L1426.09 50.4663L1425.98 55.5994L1422.63 56.8007L1419.28 57.9657L1416.11 53.9976L1412.94 49.9931L1411.63 50.7576C1410.91 51.1944 1409.41 52.0317 1408.32 52.6506C1407.23 53.2695 1406.28 53.8156 1406.21 53.852C1406.14 53.8884 1406.76 55.9998 1407.56 58.5482C1408.39 61.0965 1409.05 63.39 1409.01 63.6084C1409.01 63.8268 1407.81 64.9554 1406.32 66.0839L1403.66 68.159L1399.58 65.6107C1397.36 64.2273 1395.4 63.0623 1395.25 62.9895C1395.07 62.9531 1393.8 64.2273 1392.38 65.7927L1389.83 68.6686L1392.85 72.746L1395.87 76.8233L1393.91 79.8085C1392.23 82.3204 1391.79 82.7208 1391.1 82.5752C1390.67 82.466 1388.52 81.9927 1386.33 81.4831C1384.15 80.9734 1382.33 80.6094 1382.26 80.6822C1382.07 80.8278 1379.2 87.5626 1379.2 87.7447C1379.2 87.8175 1381.09 89.128 1383.42 90.6206C1385.79 92.186 1387.57 93.5694 1387.46 93.8242C1387.35 94.0427 1387.02 95.5353 1386.66 97.1371C1386.3 98.7389 1385.97 100.086 1385.93 100.159C1385.86 100.268 1377.2 101.324 1376.39 101.324C1375.88 101.324 1375.63 102.634 1375.45 106.493L1375.3 109.26L1377.52 109.879C1378.76 110.206 1380.91 110.789 1382.36 111.226C1385.31 112.063 1385.13 111.845 1385.57 116.322L1385.79 118.761L1381.31 121.018C1378.83 122.256 1376.76 123.312 1376.69 123.385C1376.5 123.567 1378.14 130.593 1378.43 130.848C1378.54 130.957 1380.87 130.848 1383.57 130.629C1386.26 130.374 1388.59 130.229 1388.7 130.302C1388.81 130.374 1389.5 131.794 1390.26 133.469L1391.61 136.527L1389.5 138.493C1388.37 139.585 1386.59 141.223 1385.61 142.133L1383.82 143.808L1385.97 146.939C1387.13 148.686 1388.3 150.106 1388.55 150.106C1388.81 150.106 1390.92 149.268 1393.29 148.286C1395.65 147.266 1397.73 146.465 1397.95 146.465C1398.13 146.465 1399.33 147.594 1400.53 148.941L1402.75 151.416L1400.2 156.076C1398.82 158.661 1397.84 160.845 1398.02 160.991C1398.2 161.1 1399.62 162.156 1401.19 163.321L1404.03 165.469L1405.19 164.413C1405.81 163.867 1407.48 162.301 1408.9 160.954C1410.36 159.571 1411.74 158.479 1412 158.479C1412.29 158.479 1413.71 159.134 1415.17 159.935C1418.19 161.646 1418.04 161.1 1417.1 167.58C1416.69 170.092 1416.51 172.24 1416.66 172.349C1416.77 172.495 1418.26 173.041 1419.97 173.587C1421.68 174.133 1423.25 174.679 1423.47 174.752C1423.72 174.825 1424.96 172.822 1426.34 170.238C1427.65 167.689 1428.82 165.541 1428.89 165.469C1428.96 165.396 1430.49 165.541 1432.31 165.76L1435.59 166.233L1435.99 168.09C1436.17 169.109 1436.64 171.512 1437.01 173.405L1437.63 176.863L1441.52 176.972C1444.98 177.045 1445.42 177.009 1445.6 176.426C1445.71 176.062 1446.15 173.732 1446.55 171.257C1446.98 168.745 1447.38 166.597 1447.49 166.451C1447.57 166.306 1448.84 166.015 1450.3 165.76C1451.72 165.541 1453.17 165.25 1453.5 165.177C1453.97 165.032 1454.74 166.197 1456.78 169.946C1458.23 172.64 1459.54 174.861 1459.65 174.861C1459.76 174.861 1461.4 174.315 1463.29 173.623C1466.1 172.64 1466.75 172.24 1466.68 171.694C1466.61 171.33 1466.24 168.854 1465.84 166.16C1465.44 163.503 1465.15 161.246 1465.19 161.209C1465.26 161.173 1466.61 160.445 1468.17 159.607C1471.52 157.824 1470.65 157.496 1476 162.374C1477.82 164.049 1479.46 165.396 1479.64 165.396C1480 165.396 1485.24 161.1 1485.43 160.663C1485.46 160.518 1484.95 159.389 1484.26 158.188C1483.57 156.95 1482.37 154.766 1481.64 153.346L1480.29 150.797L1482.73 148.322L1485.21 145.846L1490.34 147.958L1495.47 150.033L1497.4 147.157C1498.46 145.592 1499.33 144.172 1499.33 143.99C1499.33 143.808 1497.62 141.951 1495.51 139.876C1491.21 135.653 1491.36 136.126 1493.14 132.122L1494.27 129.61L1498.17 129.865C1500.32 130.01 1502.83 130.192 1503.74 130.338L1505.41 130.52L1506.21 127.316C1506.65 125.533 1507.09 123.822 1507.16 123.494C1507.31 123.094 1506.18 122.438 1502.54 120.836C1499.88 119.672 1497.55 118.579 1497.37 118.434C1497.19 118.252 1497.26 116.65 1497.51 114.648L1497.99 111.153L1499.48 110.752C1500.28 110.498 1502.61 109.879 1504.61 109.333L1508.25 108.35L1508.14 104.746C1508.07 102.743 1507.89 101.032 1507.78 100.887C1507.63 100.778 1505.16 100.45 1502.25 100.159L1496.97 99.6854L1496.13 96.409C1495.69 94.5887 1495.4 92.9505 1495.47 92.6957C1495.58 92.4773 1497.4 91.0575 1499.59 89.6013C1501.74 88.1451 1503.67 86.8346 1503.85 86.6889C1504.14 86.5069 1501.88 80.6094 1501.19 79.7721C1501.08 79.6264 1498.6 80.0997 1495.73 80.7914C1492.85 81.4831 1490.45 81.9927 1490.41 81.9563C1489.61 80.8642 1486.59 76.168 1486.59 75.986C1486.59 75.8768 1487.97 73.9109 1489.69 71.6902C1491.4 69.4331 1492.78 67.4673 1492.78 67.2853C1492.78 67.1032 1491.62 65.7563 1490.2 64.3365L1487.61 61.7154L1483.53 64.3365C1481.31 65.7927 1479.31 67.0668 1479.06 67.2125C1478.76 67.3945 1475.2 64.9918 1473.16 63.2444C1473.09 63.1715 1473.7 60.8781 1474.54 58.1841C1475.42 55.4902 1476 53.1239 1475.85 52.9054C1475.6 52.505 1470.06 49.629 1469.52 49.629C1469.34 49.629 1467.84 51.4128 1466.17 53.6335C1462.71 58.1477 1463.4 57.9293 1458.56 56.1455L1455.83 55.1625L1455.72 50.0295L1455.61 44.9328L1454.45 44.7508C1451.13 44.2047 1448.51 43.9135 1448.33 44.0227C1448.18 44.0955 1447.38 46.207 1446.51 48.7189L1444.91 53.2695L1441.09 53.1967L1437.26 53.0875L1435.62 48.6461C1434.71 46.207 1433.88 44.1319 1433.8 44.0591C1433.7 43.9863 1431.95 44.2775 1429.91 44.6416ZM1448.8 73.11C1464.42 76.35 1475.85 87.599 1479.16 102.889C1479.93 106.457 1479.93 113.774 1479.13 117.524C1476.47 130.156 1468.17 140.495 1456.78 145.41C1451.39 147.703 1447.86 148.431 1441.81 148.431C1435.77 148.431 1432.24 147.703 1426.85 145.41C1409.6 137.983 1400.42 118.579 1405.45 100.195C1406.57 96.0085 1409.74 89.9289 1412.58 86.3977C1418.15 79.5536 1426.89 74.3842 1435.41 72.9644C1438.57 72.4183 1445.93 72.5275 1448.8 73.11Z" fill="#D9532B"/>
<path d="M1436.54 77.4786C1426.82 79.044 1417.79 85.3784 1412.91 94.1519C1410.07 99.2485 1408.39 106.784 1408.83 112.427C1410 127.098 1419.61 138.711 1433.7 142.534C1437.81 143.626 1445.89 143.626 1450 142.534C1453.24 141.624 1458.05 139.439 1460.6 137.728C1470.68 130.775 1476.51 118.179 1474.98 106.529C1473.92 98.5204 1470.79 92.3317 1464.93 86.5797C1461.33 83.0485 1457.25 80.5366 1452.48 78.8984C1446.76 76.9689 1442.18 76.5685 1436.54 77.4786ZM1447.02 96.591C1457.07 100.377 1459.65 114.247 1451.61 121.492C1442.94 129.282 1429 124.55 1426.89 113.046C1425.58 105.729 1430.78 97.7195 1438.06 95.8629C1440.21 95.3532 1444.65 95.6809 1447.02 96.591Z" fill="#D9532B"/>
<circle cx="357.998" cy="72.9954" r="43" fill="white"/>
<path d="M362.919 5.10161L361.125 10.1633L356.94 10.2829L352.756 10.4025L350.962 5.3806C349.726 1.99283 348.969 0.398578 348.571 0.398578C348.252 0.438434 346.379 0.757284 344.386 1.11599L340.799 1.79354L340.679 7.41327L340.56 13.0729L336.933 14.3084C334.581 15.0657 333.106 15.3845 332.827 15.1454C332.588 14.9461 331.034 13.0729 329.4 10.9605C327.407 8.36982 326.251 7.21399 325.773 7.33356C325.414 7.41327 323.7 8.32996 321.947 9.36622L318.798 11.2395L320.313 15.9026C321.15 18.4534 321.907 20.805 322.026 21.1238C322.186 21.5224 321.309 22.4789 319.197 24.113C317.523 25.4283 316.048 26.4645 315.889 26.4247C315.729 26.3848 313.617 25.1493 311.106 23.6347L306.602 20.9644L304.41 23.3159C300.584 27.5008 300.584 26.8631 304.29 31.6857C306.084 33.9974 307.519 35.9503 307.519 36.03C307.519 36.2692 303.972 41.9686 303.613 42.3273C303.414 42.5266 300.903 42.1679 297.953 41.4505C295.044 40.7729 292.613 40.2946 292.533 40.3345C292.094 40.8526 289.583 47.6282 289.703 48.0267C289.862 48.3854 293.569 51.016 298.312 54.1247C298.432 54.1646 298.113 55.9183 297.595 57.9509C296.558 62.2554 297.316 61.817 289.902 62.6141L285.678 63.0924L285.359 66.9186C285.159 69.031 285 70.9042 285 71.1433C285 71.3426 287.232 72.1796 289.982 72.9369C292.732 73.734 295.203 74.4514 295.522 74.571C295.921 74.6905 296.12 75.8065 296.239 78.5167L296.439 82.3031L291.576 84.4553C288.946 85.651 286.674 86.767 286.554 86.9264C286.395 87.2054 288.268 94.8578 288.587 95.1766C288.667 95.2563 291.178 95.1368 294.207 94.8976C297.236 94.6585 299.747 94.4991 299.787 94.5788C299.866 94.6186 300.624 96.2129 301.461 98.0463L303.015 101.434L298.83 105.42L294.645 109.405L296.957 112.913C298.232 114.826 299.468 116.38 299.707 116.38C299.946 116.38 302.377 115.384 305.087 114.188L310.07 111.996L312.541 114.666C313.936 116.181 315.052 117.496 315.091 117.616C315.091 117.735 313.936 120.007 312.501 122.677C311.066 125.388 309.91 127.699 309.91 127.899C309.91 128.178 314.693 131.964 316.207 132.881C316.566 133.08 318.001 132.004 320.592 129.652C322.704 127.699 324.697 125.946 324.976 125.786C325.414 125.507 331.153 128.377 331.592 129.054C331.672 129.214 331.393 131.645 330.994 134.515C330.556 137.384 330.277 139.935 330.316 140.254C330.436 140.692 337.012 143.482 338.009 143.482C338.248 143.482 339.444 141.45 340.719 138.979C344.107 132.442 343.469 132.96 347.734 133.718C351.082 134.355 351.321 134.475 351.52 135.431C351.64 136.029 352.118 138.62 352.596 141.211L353.473 145.874H357.738H361.962L363.038 140.214C363.596 137.145 364.274 134.475 364.513 134.315C364.991 133.997 371.289 133 371.488 133.199C371.568 133.279 372.843 135.471 374.278 138.102C375.753 140.732 377.108 143.044 377.267 143.243C377.586 143.562 383.604 141.848 384.84 141.091C385.238 140.852 385.159 139.616 384.441 135.192C383.963 132.083 383.644 129.333 383.764 129.015C383.963 128.457 389.184 125.547 390.021 125.547C390.26 125.547 392.373 127.261 394.684 129.333C397.036 131.406 399.068 133.12 399.268 133.12C399.427 133.12 401.021 132.004 402.735 130.649L405.924 128.178L404.967 126.583C404.449 125.667 403.134 123.275 402.018 121.203L400.065 117.416L402.456 114.706C403.811 113.231 405.127 111.996 405.406 111.996C405.724 111.996 408.315 112.992 411.145 114.228C414.014 115.463 416.446 116.42 416.525 116.34C417.004 115.862 420.71 109.923 420.71 109.644C420.71 109.445 418.837 107.492 416.525 105.26C414.214 103.068 412.341 101.115 412.341 100.956C412.341 100.756 412.978 99.1622 413.815 97.3289L415.29 94.0208L418.678 94.2599C420.551 94.3795 423.301 94.5788 424.736 94.6984L427.406 94.9375L428.283 91.1113C428.761 88.9989 429.08 87.046 428.961 86.767C428.841 86.488 426.489 85.2923 423.7 84.0966C420.91 82.9009 418.558 81.7052 418.478 81.506C418.399 81.2668 418.478 79.5131 418.638 77.5203L418.917 73.9731L421.906 73.0963C423.54 72.5782 426.171 71.8209 427.685 71.3825L430.515 70.5455L430.077 66.5997C429.877 64.4076 429.598 62.5344 429.479 62.4547C429.359 62.3351 426.768 62.0163 423.7 61.7771C420.631 61.4981 418.04 61.2191 418 61.1394C417.92 61.0996 417.402 59.3858 416.884 57.3132C415.967 53.8059 415.967 53.5668 416.645 53.0885C417.004 52.8095 419.196 51.2949 421.428 49.7804C426.131 46.5521 425.971 47.0702 423.739 42.1679L422.305 39.1388L417.044 40.4939C414.134 41.2512 411.464 41.849 411.145 41.849C410.627 41.849 406.761 36.03 406.761 35.2728C406.761 35.0735 408.275 32.9212 410.148 30.4502C412.022 27.9392 413.536 25.7471 413.536 25.5478C413.536 24.8703 407.877 19.9281 407.398 20.2071C407.159 20.3267 404.967 21.7615 402.496 23.3558L398.032 26.2653L395.003 23.834C393.369 22.5188 392.014 21.2434 392.014 21.0042C392.014 20.7651 392.731 18.2542 393.648 15.4244C394.525 12.5946 395.202 10.2431 395.123 10.1633C395.043 10.1235 393.369 9.24665 391.376 8.25025L387.749 6.41686L384.8 10.2431C383.166 12.3156 381.651 14.2685 381.372 14.6272C380.974 15.1454 380.416 15.0657 376.908 13.9098L372.883 12.5946V6.89514C372.883 3.7465 372.763 1.1957 372.604 1.1957C372.285 1.1957 368.299 0.597859 365.908 0.199297L364.712 1.56462e-05L362.919 5.10161ZM367.502 32.6422C392.572 38.8997 405.844 65.8823 395.601 89.7562C391.655 98.963 383.604 107.173 374.597 111.239C365.749 115.224 354.908 115.822 345.581 112.913C325.693 106.695 313.378 85.8901 317.124 64.9656C318.081 59.6249 321.11 52.7696 324.378 48.3854C326.69 45.3564 331.751 40.4939 334.621 38.6207C339.444 35.4322 345.143 33.1205 350.683 32.0444C354.669 31.2871 363.317 31.606 367.502 32.6422Z" fill="#D9532B"/>
<circle cx="1215" cy="73.9954" r="43" fill="white"/>
<path d="M1219.92 6.10161L1218.13 11.1633L1213.94 11.2829L1209.76 11.4025L1207.96 6.3806C1206.73 2.99283 1205.97 1.39858 1205.57 1.39858C1205.25 1.43843 1203.38 1.75728 1201.39 2.11599L1197.8 2.79354L1197.68 8.41327L1197.56 14.0729L1193.93 15.3084C1191.58 16.0657 1190.11 16.3845 1189.83 16.1454C1189.59 15.9461 1188.03 14.0729 1186.4 11.9605C1184.41 9.36982 1183.25 8.21399 1182.77 8.33356C1182.41 8.41327 1180.7 9.32996 1178.95 10.3662L1175.8 12.2395L1177.31 16.9026C1178.15 19.4534 1178.91 21.805 1179.03 22.1238C1179.19 22.5224 1178.31 23.4789 1176.2 25.113C1174.52 26.4283 1173.05 27.4645 1172.89 27.4247C1172.73 27.3848 1170.62 26.1493 1168.11 24.6347L1163.6 21.9644L1161.41 24.3159C1157.58 28.5008 1157.58 27.8631 1161.29 32.6857C1163.08 34.9974 1164.52 36.9503 1164.52 37.03C1164.52 37.2692 1160.97 42.9686 1160.61 43.3273C1160.41 43.5266 1157.9 43.1679 1154.95 42.4505C1152.04 41.7729 1149.61 41.2946 1149.53 41.3345C1149.09 41.8526 1146.58 48.6282 1146.7 49.0267C1146.86 49.3854 1150.57 52.016 1155.31 55.1247C1155.43 55.1646 1155.11 56.9183 1154.59 58.9509C1153.56 63.2554 1154.32 62.817 1146.9 63.6141L1142.68 64.0924L1142.36 67.9186C1142.16 70.031 1142 71.9042 1142 72.1433C1142 72.3426 1144.23 73.1796 1146.98 73.9369C1149.73 74.734 1152.2 75.4514 1152.52 75.571C1152.92 75.6905 1153.12 76.8065 1153.24 79.5167L1153.44 83.3031L1148.58 85.4553C1145.95 86.651 1143.67 87.767 1143.55 87.9264C1143.39 88.2054 1145.27 95.8578 1145.59 96.1766C1145.67 96.2563 1148.18 96.1368 1151.21 95.8976C1154.24 95.6585 1156.75 95.4991 1156.79 95.5788C1156.87 95.6186 1157.62 97.2129 1158.46 99.0463L1160.02 102.434L1155.83 106.42L1151.65 110.405L1153.96 113.913C1155.23 115.826 1156.47 117.38 1156.71 117.38C1156.95 117.38 1159.38 116.384 1162.09 115.188L1167.07 112.996L1169.54 115.666C1170.94 117.181 1172.05 118.496 1172.09 118.616C1172.09 118.735 1170.94 121.007 1169.5 123.677C1168.07 126.388 1166.91 128.699 1166.91 128.899C1166.91 129.178 1171.69 132.964 1173.21 133.881C1173.57 134.08 1175 133.004 1177.59 130.652C1179.7 128.699 1181.7 126.946 1181.98 126.786C1182.41 126.507 1188.15 129.377 1188.59 130.054C1188.67 130.214 1188.39 132.645 1187.99 135.515C1187.56 138.384 1187.28 140.935 1187.32 141.254C1187.44 141.692 1194.01 144.482 1195.01 144.482C1195.25 144.482 1196.44 142.45 1197.72 139.979C1201.11 133.442 1200.47 133.96 1204.73 134.718C1208.08 135.355 1208.32 135.475 1208.52 136.431C1208.64 137.029 1209.12 139.62 1209.6 142.211L1210.47 146.874H1214.74H1218.96L1220.04 141.214C1220.6 138.145 1221.27 135.475 1221.51 135.315C1221.99 134.997 1228.29 134 1228.49 134.199C1228.57 134.279 1229.84 136.471 1231.28 139.102C1232.75 141.732 1234.11 144.044 1234.27 144.243C1234.59 144.562 1240.6 142.848 1241.84 142.091C1242.24 141.852 1242.16 140.616 1241.44 136.192C1240.96 133.083 1240.64 130.333 1240.76 130.015C1240.96 129.457 1246.18 126.547 1247.02 126.547C1247.26 126.547 1249.37 128.261 1251.68 130.333C1254.04 132.406 1256.07 134.12 1256.27 134.12C1256.43 134.12 1258.02 133.004 1259.74 131.649L1262.92 129.178L1261.97 127.583C1261.45 126.667 1260.13 124.275 1259.02 122.203L1257.06 118.416L1259.46 115.706C1260.81 114.231 1262.13 112.996 1262.41 112.996C1262.72 112.996 1265.32 113.992 1268.14 115.228C1271.01 116.463 1273.45 117.42 1273.53 117.34C1274 116.862 1277.71 110.923 1277.71 110.644C1277.71 110.445 1275.84 108.492 1273.53 106.26C1271.21 104.068 1269.34 102.115 1269.34 101.956C1269.34 101.756 1269.98 100.162 1270.82 98.3289L1272.29 95.0208L1275.68 95.2599C1277.55 95.3795 1280.3 95.5788 1281.74 95.6984L1284.41 95.9375L1285.28 92.1113C1285.76 89.9989 1286.08 88.046 1285.96 87.767C1285.84 87.488 1283.49 86.2923 1280.7 85.0966C1277.91 83.9009 1275.56 82.7052 1275.48 82.506C1275.4 82.2668 1275.48 80.5131 1275.64 78.5203L1275.92 74.9731L1278.91 74.0963C1280.54 73.5782 1283.17 72.8209 1284.69 72.3825L1287.51 71.5455L1287.08 67.5997C1286.88 65.4076 1286.6 63.5344 1286.48 63.4547C1286.36 63.3351 1283.77 63.0163 1280.7 62.7771C1277.63 62.4981 1275.04 62.2191 1275 62.1394C1274.92 62.0996 1274.4 60.3858 1273.88 58.3132C1272.97 54.8059 1272.97 54.5668 1273.65 54.0885C1274 53.8095 1276.2 52.2949 1278.43 50.7804C1283.13 47.5521 1282.97 48.0702 1280.74 43.1679L1279.3 40.1388L1274.04 41.4939C1271.13 42.2512 1268.46 42.849 1268.14 42.849C1267.63 42.849 1263.76 37.03 1263.76 36.2728C1263.76 36.0735 1265.28 33.9212 1267.15 31.4502C1269.02 28.9392 1270.54 26.7471 1270.54 26.5478C1270.54 25.8703 1264.88 20.9281 1264.4 21.2071C1264.16 21.3267 1261.97 22.7615 1259.5 24.3558L1255.03 27.2653L1252 24.834C1250.37 23.5188 1249.01 22.2434 1249.01 22.0042C1249.01 21.7651 1249.73 19.2542 1250.65 16.4244C1251.52 13.5946 1252.2 11.2431 1252.12 11.1633C1252.04 11.1235 1250.37 10.2467 1248.38 9.25025L1244.75 7.41686L1241.8 11.2431C1240.17 13.3156 1238.65 15.2685 1238.37 15.6272C1237.97 16.1454 1237.42 16.0657 1233.91 14.9098L1229.88 13.5946V7.89514C1229.88 4.7465 1229.76 2.1957 1229.6 2.1957C1229.29 2.1957 1225.3 1.59786 1222.91 1.1993L1221.71 1.00002L1219.92 6.10161ZM1224.5 33.6422C1249.57 39.8997 1262.84 66.8823 1252.6 90.7562C1248.66 99.963 1240.6 108.173 1231.6 112.239C1222.75 116.224 1211.91 116.822 1202.58 113.913C1182.69 107.695 1170.38 86.8901 1174.12 65.9656C1175.08 60.6249 1178.11 53.7696 1181.38 49.3854C1183.69 46.3564 1188.75 41.4939 1191.62 39.6207C1196.44 36.4322 1202.14 34.1205 1207.68 33.0444C1211.67 32.2871 1220.32 32.606 1224.5 33.6422Z" fill="#D9532B"/>
<circle cx="697.5" cy="80.9353" r="13.5" fill="white"/>
<path d="M684.944 8.7573C683.15 9.15586 681.397 9.59428 681.078 9.71385C680.639 9.87327 680.48 11.069 680.4 15.3734L680.281 20.7939L677.132 21.9497C675.378 22.5874 673.704 23.1055 673.425 23.1055C672.987 23.1055 670.874 20.6344 667.287 15.9314L666.291 14.5763L662.624 16.6887C660.592 17.8445 658.957 18.9605 658.957 19.1598C658.957 19.359 659.675 21.8301 660.592 24.5802C661.508 27.41 662.066 29.6818 661.867 29.8412C661.668 29.9608 660.273 30.9572 658.798 32.0732C657.284 33.1493 655.928 34.0261 655.689 33.9464C655.49 33.9066 653.497 32.7109 651.225 31.2761C648.954 29.8412 646.961 28.6854 646.761 28.6854C646.443 28.6854 643.533 31.834 641.74 34.066C641.062 34.903 641.142 35.0624 644.41 39.2473C646.243 41.6387 647.638 43.751 647.519 43.9902C647.359 44.2293 646.363 45.7439 645.327 47.3381C643.892 49.4505 643.174 50.2077 642.696 50.0483C638.87 49.0121 632.892 47.8164 632.652 48.0954C632.254 48.5736 629.344 55.7876 629.504 55.9072C629.583 55.9869 631.377 57.1427 633.45 58.4978C635.522 59.8529 637.555 61.2081 637.913 61.4871C638.631 62.045 638.671 61.766 636.997 68.1829L636.638 69.5779L631.297 70.096L625.957 70.6141L625.717 71.8895C625.638 72.5671 625.399 74.4802 625.239 76.1541L625 79.2231L627.112 79.8209C628.308 80.1796 630.739 80.8173 632.533 81.3354C636.239 82.3318 636.16 82.1724 636.279 86.8755L636.359 89.8647L631.377 92.256L626.355 94.6474L627.391 98.7925L628.428 102.898L633.21 102.619C635.881 102.459 638.432 102.3 638.95 102.26C639.707 102.22 640.106 102.738 641.421 105.608L642.935 108.996L638.75 112.981L634.565 116.967L636.877 120.355C638.113 122.228 639.229 123.822 639.308 123.902C639.348 123.982 641.7 123.145 644.49 122.029C647.319 120.873 649.791 119.956 649.99 119.956C650.229 119.956 651.425 121.112 652.7 122.547L655.012 125.137L652.381 130.239C650.946 133.069 649.791 135.46 649.791 135.58C649.791 135.859 656.048 140.681 656.407 140.681C656.566 140.681 658.001 139.486 659.675 138.011C661.309 136.496 663.262 134.783 663.979 134.185L665.334 133.069L668.403 134.743C670.117 135.659 671.552 136.457 671.592 136.457C671.632 136.496 671.313 139.167 670.874 142.435C670.436 145.703 670.157 148.413 670.197 148.453C670.277 148.493 672.03 149.091 674.103 149.769C678.567 151.243 677.809 151.721 681.357 145.185C684.067 140.163 683.628 140.442 688.252 141.239L691.042 141.718L692.237 147.576L693.433 153.435H697.698H701.962L702.241 151.921C702.361 151.124 702.879 148.493 703.357 146.062L704.194 141.678L706.984 141.199C711.687 140.402 711.169 140.083 714.358 145.863C715.912 148.732 717.267 151.044 717.387 151.044C717.626 151.044 724.88 148.573 725.079 148.413C725.159 148.334 724.8 145.584 724.322 142.276C723.843 138.968 723.485 136.217 723.564 136.138C723.644 136.098 725.119 135.261 726.833 134.344L729.941 132.67L732.014 134.464C733.17 135.42 735.242 137.294 736.677 138.609L739.228 140.96L742.496 138.33L745.804 135.739L743.014 130.478C741.5 127.608 740.264 125.098 740.264 124.898C740.264 124.659 741.38 123.304 742.775 121.829L745.246 119.119L750.029 121.271C757.044 124.42 756.167 124.54 758.757 120.474L761.029 116.967L756.605 112.782L752.221 108.597L753.696 105.09L755.21 101.543L760.71 101.822C763.7 101.981 766.45 102.14 766.808 102.18C767.446 102.22 767.566 101.861 769.16 95.0061C769.319 94.2488 768.721 93.8503 763.739 91.6183C758.797 89.3864 758.16 89.0277 758.359 88.2704C758.478 87.832 758.598 86.1979 758.598 84.6435V81.8137L764.457 80.1398C767.685 79.2231 770.356 78.4259 770.395 78.3861C770.595 78.1868 769.678 70.6938 769.439 70.4547C769.279 70.3351 766.649 69.9764 763.58 69.6576L758 69.1394L757.522 67.6249C757.243 66.7879 756.765 65.0343 756.486 63.7589L755.928 61.4073L760.83 58.1391C763.54 56.3456 765.772 54.7912 765.772 54.6716C765.772 54.5919 765.174 53.197 764.417 51.6426C763.7 50.0483 762.982 48.3744 762.823 47.9359C762.584 47.1388 762.464 47.1787 757.083 48.4541C754.094 49.2113 751.424 49.8092 751.185 49.8092C750.786 49.8092 746.641 43.7909 746.641 43.1931C746.641 43.1133 748.156 41.001 750.029 38.49C751.902 36.0189 753.417 33.8268 753.417 33.6276C753.417 33.4283 752.181 32.0333 750.667 30.5188L747.917 27.7687L746.362 28.7253C745.525 29.2035 743.532 30.5188 741.938 31.555C740.384 32.6312 738.789 33.5877 738.51 33.7073C737.992 33.9066 732.731 30.1202 732.094 29.084C731.974 28.8847 732.572 26.4535 733.489 23.6635C734.365 20.8736 735.083 18.4822 735.083 18.2829C735.083 18.0039 728.307 14.3372 727.789 14.3372C727.709 14.3372 726.115 16.33 724.282 18.7213C720.495 23.7034 721.133 23.5041 715.872 21.4714L712.803 20.2757L712.684 14.6162L712.564 8.95658L708.578 8.43845C706.386 8.15946 704.553 8.03989 704.473 8.23917C704.394 8.39859 703.596 10.7103 702.68 13.3408L701.006 18.1235L696.98 18.2431L692.915 18.3626L691.002 13.1415C689.926 10.3117 688.889 8.00003 688.65 8.00003C688.451 8.03989 686.777 8.35874 684.944 8.7573ZM702.999 69.4981C705.669 70.6938 707.821 72.8859 709.136 75.6759C709.973 77.5092 710.173 78.4658 710.173 81.0963C710.173 84.8826 709.296 87.0747 706.785 89.8248C702.999 93.93 697.14 95.046 692.277 92.6546C689.687 91.3393 687.375 88.948 685.98 86.158C685.223 84.6435 685.063 83.6471 685.063 80.897C685.063 77.9875 685.223 77.2302 686.179 75.4367C689.487 69.0597 696.622 66.5488 702.999 69.4981Z" fill="#D9532B"/>
<circle cx="1554.5" cy="81.9353" r="13.5" fill="white"/>
<path d="M1541.94 9.7573C1540.15 10.1559 1538.4 10.5943 1538.08 10.7138C1537.64 10.8733 1537.48 12.069 1537.4 16.3734L1537.28 21.7939L1534.13 22.9497C1532.38 23.5874 1530.7 24.1055 1530.43 24.1055C1529.99 24.1055 1527.87 21.6344 1524.29 16.9314L1523.29 15.5763L1519.62 17.6887C1517.59 18.8445 1515.96 19.9605 1515.96 20.1598C1515.96 20.359 1516.67 22.8301 1517.59 25.5802C1518.51 28.41 1519.07 30.6818 1518.87 30.8412C1518.67 30.9608 1517.27 31.9572 1515.8 33.0732C1514.28 34.1493 1512.93 35.0261 1512.69 34.9464C1512.49 34.9066 1510.5 33.7109 1508.23 32.2761C1505.95 30.8412 1503.96 29.6854 1503.76 29.6854C1503.44 29.6854 1500.53 32.834 1498.74 35.066C1498.06 35.903 1498.14 36.0624 1501.41 40.2473C1503.24 42.6387 1504.64 44.751 1504.52 44.9902C1504.36 45.2293 1503.36 46.7439 1502.33 48.3381C1500.89 50.4505 1500.17 51.2077 1499.7 51.0483C1495.87 50.0121 1489.89 48.8164 1489.65 49.0954C1489.25 49.5736 1486.34 56.7876 1486.5 56.9072C1486.58 56.9869 1488.38 58.1427 1490.45 59.4978C1492.52 60.8529 1494.55 62.2081 1494.91 62.4871C1495.63 63.045 1495.67 62.766 1494 69.1829L1493.64 70.5779L1488.3 71.096L1482.96 71.6141L1482.72 72.8895C1482.64 73.5671 1482.4 75.4802 1482.24 77.1541L1482 80.2231L1484.11 80.8209C1485.31 81.1796 1487.74 81.8173 1489.53 82.3354C1493.24 83.3318 1493.16 83.1724 1493.28 87.8755L1493.36 90.8647L1488.38 93.256L1483.36 95.6474L1484.39 99.7925L1485.43 103.898L1490.21 103.619C1492.88 103.459 1495.43 103.3 1495.95 103.26C1496.71 103.22 1497.11 103.738 1498.42 106.608L1499.94 109.996L1495.75 113.981L1491.57 117.967L1493.88 121.355C1495.11 123.228 1496.23 124.822 1496.31 124.902C1496.35 124.982 1498.7 124.145 1501.49 123.029C1504.32 121.873 1506.79 120.956 1506.99 120.956C1507.23 120.956 1508.42 122.112 1509.7 123.547L1512.01 126.137L1509.38 131.239C1507.95 134.069 1506.79 136.46 1506.79 136.58C1506.79 136.859 1513.05 141.681 1513.41 141.681C1513.57 141.681 1515 140.486 1516.67 139.011C1518.31 137.496 1520.26 135.783 1520.98 135.185L1522.33 134.069L1525.4 135.743C1527.12 136.659 1528.55 137.457 1528.59 137.457C1528.63 137.496 1528.31 140.167 1527.87 143.435C1527.44 146.703 1527.16 149.413 1527.2 149.453C1527.28 149.493 1529.03 150.091 1531.1 150.769C1535.57 152.243 1534.81 152.721 1538.36 146.185C1541.07 141.163 1540.63 141.442 1545.25 142.239L1548.04 142.718L1549.24 148.576L1550.43 154.435H1554.7H1558.96L1559.24 152.921C1559.36 152.124 1559.88 149.493 1560.36 147.062L1561.19 142.678L1563.98 142.199C1568.69 141.402 1568.17 141.083 1571.36 146.863C1572.91 149.732 1574.27 152.044 1574.39 152.044C1574.63 152.044 1581.88 149.573 1582.08 149.413C1582.16 149.334 1581.8 146.584 1581.32 143.276C1580.84 139.968 1580.48 137.217 1580.56 137.138C1580.64 137.098 1582.12 136.261 1583.83 135.344L1586.94 133.67L1589.01 135.464C1590.17 136.42 1592.24 138.294 1593.68 139.609L1596.23 141.96L1599.5 139.33L1602.8 136.739L1600.01 131.478C1598.5 128.608 1597.26 126.098 1597.26 125.898C1597.26 125.659 1598.38 124.304 1599.78 122.829L1602.25 120.119L1607.03 122.271C1614.04 125.42 1613.17 125.54 1615.76 121.474L1618.03 117.967L1613.61 113.782L1609.22 109.597L1610.7 106.09L1612.21 102.543L1617.71 102.822C1620.7 102.981 1623.45 103.14 1623.81 103.18C1624.45 103.22 1624.57 102.861 1626.16 96.0061C1626.32 95.2488 1625.72 94.8503 1620.74 92.6183C1615.8 90.3864 1615.16 90.0277 1615.36 89.2704C1615.48 88.832 1615.6 87.1979 1615.6 85.6435V82.8137L1621.46 81.1398C1624.69 80.2231 1627.36 79.4259 1627.4 79.3861C1627.59 79.1868 1626.68 71.6938 1626.44 71.4547C1626.28 71.3351 1623.65 70.9764 1620.58 70.6576L1615 70.1394L1614.52 68.6249C1614.24 67.7879 1613.76 66.0343 1613.49 64.7589L1612.93 62.4073L1617.83 59.1391C1620.54 57.3456 1622.77 55.7912 1622.77 55.6716C1622.77 55.5919 1622.17 54.197 1621.42 52.6426C1620.7 51.0483 1619.98 49.3744 1619.82 48.9359C1619.58 48.1388 1619.46 48.1787 1614.08 49.4541C1611.09 50.2113 1608.42 50.8092 1608.18 50.8092C1607.79 50.8092 1603.64 44.7909 1603.64 44.1931C1603.64 44.1133 1605.16 42.001 1607.03 39.49C1608.9 37.0189 1610.42 34.8268 1610.42 34.6276C1610.42 34.4283 1609.18 33.0333 1607.67 31.5188L1604.92 28.7687L1603.36 29.7253C1602.53 30.2035 1600.53 31.5188 1598.94 32.555C1597.38 33.6312 1595.79 34.5877 1595.51 34.7073C1594.99 34.9066 1589.73 31.1202 1589.09 30.084C1588.97 29.8847 1589.57 27.4535 1590.49 24.6635C1591.37 21.8736 1592.08 19.4822 1592.08 19.2829C1592.08 19.0039 1585.31 15.3372 1584.79 15.3372C1584.71 15.3372 1583.12 17.33 1581.28 19.7213C1577.5 24.7034 1578.13 24.5041 1572.87 22.4714L1569.8 21.2757L1569.68 15.6162L1569.56 9.95658L1565.58 9.43845C1563.39 9.15946 1561.55 9.03989 1561.47 9.23917C1561.39 9.39859 1560.6 11.7103 1559.68 14.3408L1558.01 19.1235L1553.98 19.2431L1549.91 19.3626L1548 14.1415C1546.93 11.3117 1545.89 9.00003 1545.65 9.00003C1545.45 9.03989 1543.78 9.35874 1541.94 9.7573ZM1560 70.4981C1562.67 71.6938 1564.82 73.8859 1566.14 76.6759C1566.97 78.5092 1567.17 79.4658 1567.17 82.0963C1567.17 85.8826 1566.3 88.0747 1563.78 90.8248C1560 94.93 1554.14 96.046 1549.28 93.6546C1546.69 92.3393 1544.37 89.948 1542.98 87.158C1542.22 85.6435 1542.06 84.6471 1542.06 81.897C1542.06 78.9875 1542.22 78.2302 1543.18 76.4367C1546.49 70.0597 1553.62 67.5488 1560 70.4981Z" fill="#D9532B"/>
<circle cx="56.5" cy="76.5" r="24.5" fill="white"/>
<path d="M110.605 83.0589C108.113 82.0839 105.021 80.9529 101.733 79.7959L98.1058 78.5219L98.1058 76.9359C98.1058 73.9329 97.4926 69.3569 96.7229 66.6919C96.4619 65.7819 96.2662 65.0149 96.2923 64.9889C96.3184 64.9759 96.9577 64.5209 97.7144 63.9879C100.324 62.1679 108.021 56.5779 108.021 56.5129C108.021 56.3829 107.134 54.1599 106.873 53.6659C106.73 53.3799 106.404 52.7039 106.143 52.1709C105.895 51.6379 105.347 50.6109 104.916 49.8959C104.499 49.1809 103.781 47.9719 103.325 47.2049C102.516 45.8399 101.159 43.9549 100.128 42.7589L99.5932 42.1609L96.214 43.7209C94.3483 44.5919 91.4258 45.9439 89.7167 46.7369L86.6115 48.1799L85.6069 47.1919C82.9976 44.6439 78.94 41.5629 76.8003 40.5229C76.3828 40.3149 76.0566 40.1069 76.0566 40.0419C76.0566 39.9899 76.3697 38.1439 76.7612 35.9469C77.5179 31.6699 78.4442 25.8979 78.379 25.8459C78.2746 25.7419 75.1433 24.5069 73.7734 24.0259C71.8686 23.3629 66.4933 22.2709 62.814 21.8159L62.1617 21.7379L59.6176 28.3419L57.0734 34.9459L55.834 34.9719C53.603 35.0239 50.8631 35.2709 49.454 35.5439C48.6973 35.6869 47.6144 35.8949 47.0665 35.9989C46.5055 36.1029 45.553 36.3369 44.9398 36.5059C44.3266 36.6879 43.7395 36.8309 43.6351 36.8309C43.5438 36.8309 42.5914 35.6219 41.5346 34.1399C40.4778 32.6449 38.6121 30.0709 37.3857 28.4069C35.4026 25.7029 35.1286 25.3909 34.8676 25.4559C33.7195 25.7419 28.8139 28.2639 26.1001 29.9539C24.5867 30.9159 21.7947 32.8529 21.1684 33.3859L20.7248 33.7759L21.7816 36.0509C22.8384 38.2869 26.2045 45.6189 26.5437 46.3989L26.7264 46.7889L25.0955 48.5439C23.0341 50.7409 22.2122 51.8329 20.3856 54.8099C19.2897 56.6039 18.8722 57.1759 18.6895 57.1499C18.559 57.1369 16.8369 56.8639 14.8668 56.5389C11.3963 55.9669 5.10772 55.0309 4.78155 55.0309C4.69022 55.0309 4.5467 55.2259 4.44233 55.4599C3.26811 58.3849 2.4592 60.9979 1.57201 64.7549C0.971858 67.2639 0.345607 70.9039 0.489123 71.0339C0.75006 71.2679 9.08701 74.4269 12.6097 75.6489L14.084 76.1429L14.084 78.1189C14.084 81.5249 14.4232 83.9299 15.4147 87.3749C15.8583 88.9609 15.9105 89.2729 15.767 89.4159C15.6626 89.5069 13.0011 91.4049 9.84373 93.6409C6.68639 95.8769 4.07701 97.7229 4.06397 97.7489C4.01178 97.7879 4.5467 98.9319 6.28193 102.442C6.99951 103.898 7.97803 105.601 8.85217 106.927C10.1047 108.812 11.8921 111.23 12.5183 111.88C12.7271 112.114 12.8445 112.075 15.6626 110.827C17.2674 110.112 20.229 108.76 22.2383 107.837L25.8783 106.147L27.5222 107.668C29.7402 109.748 32.3235 111.633 34.7241 112.933C35.3504 113.258 35.8853 113.583 35.9114 113.635C35.9375 113.687 35.7679 114.87 35.533 116.261C34.3066 123.528 33.6412 127.74 33.6934 127.883C33.8108 128.169 39.6037 130.197 41.8738 130.756C42.3435 130.86 42.8523 131.016 43.0089 131.081C43.2829 131.198 47.9928 132.03 49.2062 132.173L49.8194 132.251L50.0933 131.627C50.4587 130.821 52.5201 125.387 53.8769 121.695L54.9598 118.731L56.9951 118.731C59.3305 118.731 60.6613 118.601 62.8401 118.198C64.1318 117.964 66.9369 117.327 67.7327 117.093C67.8893 117.041 68.3981 117.665 69.7419 119.537C71.7642 122.358 76.4089 128.572 76.5915 128.676C76.7351 128.767 78.8226 127.883 80.9492 126.817C83.9891 125.309 87.0551 123.359 89.6515 121.305L90.917 120.304L90.1603 118.575C89.1035 116.183 87.3291 112.335 86.0244 109.644L84.9285 107.395L86.5855 105.653C88.3337 103.807 90.082 101.571 90.9692 100.076C91.4258 99.2959 92.4826 97.6969 92.7566 97.3719C92.8088 97.3199 94.3614 97.5149 96.2271 97.8009C105.543 99.2569 107.134 99.5039 107.173 99.4649C107.186 99.4389 107.552 98.5159 107.982 97.4109C108.896 95.0709 109.848 92.2239 109.848 91.8079C109.848 91.6519 109.965 91.1969 110.096 90.7939C110.461 89.7539 111.531 84.4499 111.544 83.6959C111.544 83.4879 111.335 83.3579 110.605 83.0589ZM76.3828 80.7059C75.7435 84.2939 73.9822 88.0379 71.6468 90.7419C68.8808 93.9399 63.8317 96.7219 59.4349 97.4759C57.7779 97.7619 54.9076 97.7359 53.068 97.4239C49.7411 96.8519 46.2184 95.4219 43.9613 93.7189C39.9559 90.7159 36.8116 85.5159 35.9375 80.4589C35.6896 78.9769 35.6896 76.1169 35.9375 74.5569C36.4202 71.5929 37.6336 68.2389 38.9774 66.1589C41.9782 61.5309 47.1317 58.0989 52.7027 57.0329C54.3597 56.7209 57.3735 56.7209 59.1609 57.0329C65.8018 58.2029 70.4073 61.3099 73.8517 66.9259C74.765 68.4079 75.7044 70.7349 76.1349 72.5159C76.7351 75.0249 76.8264 78.2229 76.3828 80.7059Z" fill="#D9532B"/>
<path d="M70.7451 66.9867C69.0329 64.7536 67.8057 63.639 65.5892 62.2669C61.2299 59.5695 56.8911 58.9945 51.7706 60.4451C49.376 61.1169 48.6841 61.4087 46.9969 62.4003C45.4059 63.3496 44.28 64.2636 43.2065 65.4945C42.5373 66.2571 41.0307 68.4428 41.0974 68.5544C41.1173 68.5879 40.8533 69.2148 40.5129 69.9174C39.0002 73.0604 38.5192 76.4811 39.1019 79.9785C40.254 86.951 44.9563 92.1837 51.8111 94.149C54.8923 95.0354 58.8808 94.896 61.9701 93.8096C66.2727 92.287 69.4895 89.5047 71.7304 85.367C74.1582 80.9059 74.5439 76.7398 72.9953 71.6237C72.4725 69.9071 71.5769 68.0496 70.7451 66.9867ZM68.8529 73.3384C70.0573 77.343 69.4724 81.0224 67.0588 84.718C65.932 86.4198 65.214 87.0752 63.0293 88.3788C60.7997 89.7092 59.9043 90.0164 57.6793 90.2086C56.0244 90.3634 54.7372 90.2685 53.2544 89.8968C48.1296 88.5646 44.9548 85.3572 43.61 80.1498C42.7318 76.7681 43.3672 73.3008 45.4616 70.0377C47.4614 66.9219 50.9556 64.6554 54.3842 64.2143C57.7278 63.8088 61.0598 64.6061 63.8755 66.4987C66.4637 68.2394 67.9265 70.258 68.8529 73.3384Z" fill="#D9532B"/>
<circle cx="913.5" cy="77.5" r="24.5" fill="white"/>
<path d="M963 55.2265C960.361 55.666 957.126 56.2792 953.71 56.9702L949.942 57.7346L949.129 56.3727C947.591 53.7938 944.719 50.1784 942.693 48.2842C942.002 47.6365 941.441 47.0781 941.45 47.0424C941.466 47.0179 941.782 46.2996 942.159 45.4541C943.467 42.5542 947.213 33.8095 947.18 33.7537C947.113 33.6421 945.212 32.1876 944.735 31.8971C944.465 31.7251 943.839 31.3117 943.342 30.9876C942.856 30.657 941.859 30.0558 941.123 29.6624C940.398 29.2623 939.162 28.5918 938.377 28.1671C936.983 27.4094 934.852 26.4859 933.354 25.9869L932.588 25.7475L930.486 28.8186C929.33 30.5225 927.513 33.181 926.451 34.7378L924.524 37.568L923.155 37.2343C919.609 36.3832 914.546 35.8165 912.175 36.0197C911.71 36.055 911.324 36.0435 911.29 35.9877C911.264 35.9431 910.587 34.1974 909.797 32.1101C908.255 28.0495 906.093 22.6182 906.011 22.6069C905.868 22.5711 902.546 23.115 901.123 23.4039C899.148 23.8105 893.972 25.627 890.579 27.1215L889.979 27.3888L891.178 34.3636L892.377 41.3384L891.326 41.9958C889.437 43.1836 887.211 44.7996 886.141 45.756C885.564 46.2666 884.741 47 884.323 47.3701C883.895 47.7469 883.197 48.4359 882.757 48.8952C882.324 49.3657 881.893 49.7893 881.803 49.8428C881.725 49.8896 880.287 49.3394 878.62 48.6082C876.947 47.8659 874.026 46.6114 872.12 45.8108C869.031 44.5049 868.636 44.3774 868.446 44.5669C867.606 45.4008 864.686 50.0802 863.221 52.922C862.414 54.5235 861.009 57.6176 860.745 58.3962L860.563 58.9584L862.637 60.3705C864.69 61.7492 871.337 66.3208 872.028 66.8168L872.385 67.0581L871.884 69.4009C871.239 72.3438 871.093 73.7027 871.05 77.1952C871.028 79.2973 870.962 80.0024 870.792 80.0737C870.674 80.1294 869.055 80.7774 867.196 81.5077C863.923 82.7948 858.043 85.2132 857.763 85.3803C857.685 85.4271 857.661 85.6681 857.692 85.9226C858.182 89.0361 858.826 91.6945 859.989 95.3754C860.76 97.8375 862.087 101.284 862.277 101.322C862.621 101.39 871.399 99.8306 875.05 99.075L876.569 98.7438L877.582 100.441C879.327 103.366 880.85 105.257 883.467 107.707C884.661 108.842 884.865 109.083 884.815 109.28C884.772 109.411 883.459 112.405 881.894 115.943C880.328 119.481 879.033 122.403 879.035 122.432C879.01 122.492 880.056 123.201 883.345 125.326C884.707 126.208 886.42 127.17 887.85 127.86C889.891 128.837 892.665 129.998 893.536 130.235C893.835 130.329 893.916 130.236 895.697 127.72C896.708 126.284 898.559 123.605 899.811 121.783L902.071 118.466L904.262 118.93C907.233 119.58 910.417 119.875 913.145 119.761C913.849 119.72 914.475 119.725 914.524 119.756C914.573 119.787 915.034 120.89 915.545 122.205C918.215 129.074 919.802 133.032 919.92 133.128C920.167 133.313 926.181 132.087 928.417 131.404C928.874 131.252 929.39 131.125 929.558 131.101C929.853 131.061 934.324 129.362 935.44 128.863L936.006 128.616L935.922 127.94C935.823 127.061 934.808 121.338 934.082 117.472L933.493 114.372L935.241 113.329C937.246 112.132 938.323 111.339 939.987 109.876C940.977 109.014 943.059 107.029 943.623 106.421C943.73 106.296 944.487 106.571 946.6 107.49C949.782 108.876 956.955 111.833 957.165 111.828C957.335 111.833 958.675 110.004 959.955 107.999C961.793 105.146 963.426 101.901 964.603 98.8066L965.177 97.2985L963.642 96.2015C961.508 94.6888 958.013 92.2935 955.514 90.6511L953.42 89.2813L953.951 86.9364C954.506 84.4553 954.862 81.6394 954.858 79.9009C954.85 78.9971 954.938 77.0825 955.007 76.663C955.025 76.5916 956.458 75.9635 958.207 75.2532C966.953 71.7303 968.446 71.1269 968.46 71.0733C968.458 71.0443 968.299 70.0645 968.102 68.895C967.687 66.4175 967.046 63.4847 966.833 63.1274C966.753 62.9934 966.621 62.5425 966.527 62.1296C966.307 61.0493 964.508 55.9463 964.133 55.2922C964.027 55.1135 963.781 55.1089 963 55.2265ZM932.406 70.7409C933.696 74.1496 934.102 78.2673 933.482 81.786C932.745 85.9495 929.835 90.9257 926.445 93.8261C925.169 94.9207 922.691 96.3691 920.951 97.0438C917.801 98.2573 914.043 98.8343 911.232 98.5283C906.254 98.0018 900.889 95.1474 897.547 91.2526C896.575 90.107 895.11 87.6509 894.523 86.1843C893.419 83.3916 892.742 79.8896 892.831 77.4148C893.036 71.903 895.703 66.3151 899.941 62.5451C901.204 61.4282 903.792 59.8839 905.487 59.236C911.79 56.838 917.337 57.1463 923.172 60.2042C924.716 61.0089 926.715 62.5259 927.997 63.8347C929.798 65.6818 931.515 68.3813 932.406 70.7409Z" fill="#D9532B"/>
<path d="M927.745 67.9867C926.033 65.7536 924.806 64.6389 922.589 63.2668C918.23 60.5695 913.891 59.9945 908.771 61.445C906.376 62.1169 905.684 62.4087 903.997 63.4003C902.406 64.3495 901.28 65.2635 900.207 66.4944C899.537 67.2571 898.031 69.4427 898.097 69.5544C898.117 69.5879 897.853 70.2147 897.513 70.9174C896 74.0604 895.519 77.481 896.102 80.9785C897.254 87.951 901.956 93.1837 908.811 95.149C911.892 96.0353 915.881 95.896 918.97 94.8096C923.273 93.2869 926.489 90.5047 928.73 86.367C931.158 81.9059 931.544 77.7398 929.995 72.6236C929.472 70.9071 928.577 69.0496 927.745 67.9867ZM925.853 74.3384C927.057 78.3429 926.472 82.0223 924.059 85.718C922.932 87.4197 922.214 88.0752 920.029 89.3788C917.8 90.7092 916.904 91.0163 914.679 91.2086C913.024 91.3633 911.737 91.2685 910.254 90.8968C905.13 89.5645 901.955 86.3572 900.61 81.1497C899.732 77.7681 900.367 74.3007 902.462 71.0377C904.461 67.9219 907.956 65.6554 911.384 65.2142C914.728 64.8088 918.06 65.6061 920.875 67.4987C923.464 69.2393 924.926 71.258 925.853 74.3384Z" fill="#D9532B"/>
<circle cx="465.5" cy="99.4143" r="24.5" fill="white"/>
<path d="M515 77.1408C512.361 77.5804 509.126 78.1935 505.71 78.8846L501.942 79.649L501.129 78.287C499.591 75.7082 496.719 72.0928 494.693 70.1986C494.002 69.5508 493.441 68.9925 493.45 68.9568C493.466 68.9322 493.782 68.2139 494.159 67.3685C495.467 64.4685 499.213 55.7239 499.18 55.6681C499.113 55.5564 497.212 54.102 496.735 53.8115C496.465 53.6394 495.839 53.226 495.342 52.902C494.856 52.5713 493.859 51.9702 493.123 51.5768C492.398 51.1767 491.162 50.5061 490.377 50.0814C488.983 49.3237 486.852 48.4002 485.354 47.9013L484.588 47.6618L482.486 50.7329C481.33 52.4369 479.513 55.0954 478.451 56.6521L476.524 59.4824L475.155 59.1487C471.609 58.2976 466.546 57.7308 464.175 57.9341C463.71 57.9694 463.324 57.9579 463.29 57.9021C463.264 57.8574 462.587 56.1117 461.797 54.0245C460.255 49.9639 458.093 44.5325 458.011 44.5213C457.868 44.4855 454.546 45.0293 453.123 45.3182C451.148 45.7249 445.972 47.5414 442.579 49.0359L441.979 49.3032L443.178 56.2779L444.377 63.2527L443.326 63.9102C441.437 65.098 439.211 66.714 438.141 67.6704C437.564 68.1809 436.741 68.9144 436.323 69.2845C435.895 69.6613 435.197 70.3502 434.757 70.8096C434.324 71.28 433.893 71.7037 433.803 71.7572C433.725 71.804 432.287 71.2537 430.62 70.5226C428.947 69.7802 426.026 68.5258 424.12 67.7252C421.031 66.4193 420.636 66.2917 420.446 66.4813C419.606 67.3151 416.686 71.9945 415.221 74.8363C414.414 76.4379 413.009 79.5319 412.745 80.3105L412.563 80.8727L414.637 82.2849C416.69 83.6636 423.337 88.2352 424.028 88.7312L424.385 88.9725L423.884 91.3153C423.239 94.2582 423.093 95.6171 423.05 99.1095C423.028 101.212 422.962 101.917 422.792 101.988C422.674 102.044 421.055 102.692 419.196 103.422C415.923 104.709 410.043 107.128 409.763 107.295C409.685 107.342 409.661 107.583 409.692 107.837C410.182 110.95 410.826 113.609 411.989 117.29C412.76 119.752 414.087 123.199 414.277 123.237C414.621 123.304 423.399 121.745 427.05 120.989L428.569 120.658L429.582 122.355C431.327 125.28 432.85 127.171 435.467 129.622C436.661 130.756 436.865 130.998 436.815 131.194C436.772 131.326 435.459 134.319 433.894 137.857C432.328 141.395 431.033 144.318 431.035 144.347C431.01 144.407 432.056 145.115 435.345 147.24C436.707 148.123 438.42 149.084 439.85 149.775C441.891 150.752 444.665 151.912 445.536 152.15C445.835 152.244 445.916 152.15 447.697 149.634C448.708 148.198 450.559 145.519 451.811 143.697L454.071 140.381L456.262 140.845C459.233 141.494 462.417 141.789 465.145 141.676C465.849 141.634 466.475 141.639 466.524 141.67C466.573 141.702 467.034 142.804 467.545 144.119C470.215 150.988 471.802 154.946 471.92 155.042C472.167 155.228 478.181 154.001 480.417 153.318C480.874 153.167 481.39 153.04 481.558 153.015C481.853 152.975 486.324 151.277 487.44 150.778L488.006 150.53L487.922 149.854C487.823 148.975 486.808 143.252 486.082 139.386L485.493 136.286L487.241 135.243C489.246 134.047 490.323 133.253 491.987 131.791C492.977 130.928 495.059 128.944 495.623 128.335C495.73 128.21 496.487 128.485 498.6 129.404C501.782 130.791 508.955 133.747 509.165 133.743C509.335 133.747 510.675 131.918 511.955 129.913C513.793 127.061 515.426 123.815 516.603 120.721L517.177 119.213L515.642 118.116C513.508 116.603 510.013 114.208 507.514 112.565L505.42 111.196L505.951 108.851C506.506 106.37 506.862 103.554 506.858 101.815C506.85 100.911 506.938 98.9969 507.007 98.5774C507.025 98.506 508.458 97.8779 510.207 97.1675C518.953 93.6447 520.446 93.0412 520.46 92.9877C520.458 92.9587 520.299 91.9789 520.102 90.8093C519.687 88.3319 519.046 85.399 518.833 85.0418C518.753 84.9078 518.621 84.4569 518.527 84.044C518.307 82.9637 516.508 77.8607 516.133 77.2065C516.027 77.0279 515.781 77.0232 515 77.1408ZM484.406 92.6552C485.696 96.064 486.102 100.182 485.482 103.7C484.745 107.864 481.835 112.84 478.445 115.74C477.169 116.835 474.691 118.283 472.951 118.958C469.801 120.172 466.043 120.749 463.232 120.443C458.254 119.916 452.889 117.062 449.547 113.167C448.575 112.021 447.11 109.565 446.523 108.099C445.419 105.306 444.742 101.804 444.831 99.3292C445.036 93.8173 447.703 88.2295 451.941 84.4595C453.204 83.3426 455.792 81.7983 457.487 81.1504C463.79 78.7524 469.337 79.0607 475.172 82.1186C476.716 82.9233 478.715 84.4403 479.997 85.7491C481.798 87.5962 483.515 90.2957 484.406 92.6552Z" fill="#D9532B"/>
<path d="M479.745 89.901C478.033 87.6679 476.806 86.5533 474.589 85.1812C470.23 82.4839 465.891 81.9088 460.771 83.3594C458.376 84.0313 457.684 84.323 455.997 85.3146C454.406 86.2639 453.28 87.1779 452.207 88.4088C451.537 89.1714 450.031 91.3571 450.097 91.4687C450.117 91.5022 449.853 92.1291 449.513 92.8317C448 95.9748 447.519 99.3954 448.102 102.893C449.254 109.865 453.956 115.098 460.811 117.063C463.892 117.95 467.881 117.81 470.97 116.724C475.273 115.201 478.489 112.419 480.73 108.281C483.158 103.82 483.544 99.6542 481.995 94.538C481.472 92.8215 480.577 90.964 479.745 89.901ZM477.853 96.2528C479.057 100.257 478.472 103.937 476.059 107.632C474.932 109.334 474.214 109.99 472.029 111.293C469.8 112.624 468.904 112.931 466.679 113.123C465.024 113.278 463.737 113.183 462.254 112.811C457.13 111.479 453.955 108.272 452.61 103.064C451.732 99.6825 452.367 96.2151 454.462 92.9521C456.461 89.8363 459.956 87.5697 463.384 87.1286C466.728 86.7231 470.06 87.5205 472.875 89.4131C475.464 91.1537 476.926 93.1723 477.853 96.2528Z" fill="#D9532B"/>
<circle cx="1322.5" cy="100.414" r="24.5" fill="white"/>
<path d="M1372 78.1408C1369.36 78.5804 1366.13 79.1935 1362.71 79.8846L1358.94 80.649L1358.13 79.287C1356.59 76.7082 1353.72 73.0928 1351.69 71.1986C1351 70.5508 1350.44 69.9925 1350.45 69.9568C1350.47 69.9322 1350.78 69.2139 1351.16 68.3685C1352.47 65.4685 1356.21 56.7239 1356.18 56.6681C1356.11 56.5564 1354.21 55.102 1353.74 54.8115C1353.47 54.6394 1352.84 54.226 1352.34 53.902C1351.86 53.5713 1350.86 52.9702 1350.12 52.5768C1349.4 52.1767 1348.16 51.5061 1347.38 51.0814C1345.98 50.3237 1343.85 49.4002 1342.35 48.9013L1341.59 48.6618L1339.49 51.7329C1338.33 53.4369 1336.51 56.0954 1335.45 57.6521L1333.52 60.4824L1332.16 60.1487C1328.61 59.2976 1323.55 58.7308 1321.18 58.9341C1320.71 58.9694 1320.32 58.9579 1320.29 58.9021C1320.26 58.8574 1319.59 57.1117 1318.8 55.0245C1317.26 50.9639 1315.09 45.5325 1315.01 45.5213C1314.87 45.4855 1311.55 46.0293 1310.12 46.3182C1308.15 46.7249 1302.97 48.5414 1299.58 50.0359L1298.98 50.3032L1300.18 57.2779L1301.38 64.2527L1300.33 64.9102C1298.44 66.098 1296.21 67.714 1295.14 68.6704C1294.56 69.1809 1293.74 69.9144 1293.32 70.2845C1292.89 70.6613 1292.2 71.3502 1291.76 71.8096C1291.32 72.28 1290.89 72.7037 1290.8 72.7572C1290.72 72.804 1289.29 72.2537 1287.62 71.5226C1285.95 70.7802 1283.03 69.5258 1281.12 68.7252C1278.03 67.4193 1277.64 67.2917 1277.45 67.4813C1276.61 68.3151 1273.69 72.9945 1272.22 75.8363C1271.41 77.4379 1270.01 80.5319 1269.74 81.3105L1269.56 81.8727L1271.64 83.2849C1273.69 84.6636 1280.34 89.2352 1281.03 89.7312L1281.39 89.9725L1280.88 92.3153C1280.24 95.2582 1280.09 96.6171 1280.05 100.11C1280.03 102.212 1279.96 102.917 1279.79 102.988C1279.67 103.044 1278.05 103.692 1276.2 104.422C1272.92 105.709 1267.04 108.128 1266.76 108.295C1266.68 108.342 1266.66 108.583 1266.69 108.837C1267.18 111.95 1267.83 114.609 1268.99 118.29C1269.76 120.752 1271.09 124.199 1271.28 124.237C1271.62 124.304 1280.4 122.745 1284.05 121.989L1285.57 121.658L1286.58 123.355C1288.33 126.28 1289.85 128.171 1292.47 130.622C1293.66 131.756 1293.87 131.998 1293.82 132.194C1293.77 132.326 1292.46 135.319 1290.89 138.857C1289.33 142.395 1288.03 145.318 1288.04 145.347C1288.01 145.407 1289.06 146.115 1292.34 148.24C1293.71 149.123 1295.42 150.084 1296.85 150.775C1298.89 151.752 1301.67 152.912 1302.54 153.15C1302.84 153.244 1302.92 153.15 1304.7 150.634C1305.71 149.198 1307.56 146.519 1308.81 144.697L1311.07 141.381L1313.26 141.845C1316.23 142.494 1319.42 142.789 1322.14 142.676C1322.85 142.634 1323.48 142.639 1323.52 142.67C1323.57 142.702 1324.03 143.804 1324.54 145.119C1327.22 151.988 1328.8 155.946 1328.92 156.042C1329.17 156.228 1335.18 155.001 1337.42 154.318C1337.87 154.167 1338.39 154.04 1338.56 154.015C1338.85 153.975 1343.32 152.277 1344.44 151.778L1345.01 151.53L1344.92 150.854C1344.82 149.975 1343.81 144.252 1343.08 140.386L1342.49 137.286L1344.24 136.243C1346.25 135.047 1347.32 134.253 1348.99 132.791C1349.98 131.928 1352.06 129.944 1352.62 129.335C1352.73 129.21 1353.49 129.485 1355.6 130.404C1358.78 131.791 1365.95 134.747 1366.17 134.743C1366.33 134.747 1367.67 132.918 1368.95 130.913C1370.79 128.061 1372.43 124.815 1373.6 121.721L1374.18 120.213L1372.64 119.116C1370.51 117.603 1367.01 115.208 1364.51 113.565L1362.42 112.196L1362.95 109.851C1363.51 107.37 1363.86 104.554 1363.86 102.815C1363.85 101.911 1363.94 99.9969 1364.01 99.5774C1364.03 99.506 1365.46 98.8779 1367.21 98.1675C1375.95 94.6447 1377.45 94.0412 1377.46 93.9877C1377.46 93.9587 1377.3 92.9789 1377.1 91.8093C1376.69 89.3319 1376.05 86.399 1375.83 86.0418C1375.75 85.9078 1375.62 85.4569 1375.53 85.044C1375.31 83.9637 1373.51 78.8607 1373.13 78.2065C1373.03 78.0279 1372.78 78.0232 1372 78.1408ZM1341.41 93.6552C1342.7 97.064 1343.1 101.182 1342.48 104.7C1341.75 108.864 1338.83 113.84 1335.45 116.74C1334.17 117.835 1331.69 119.283 1329.95 119.958C1326.8 121.172 1323.04 121.749 1320.23 121.443C1315.25 120.916 1309.89 118.062 1306.55 114.167C1305.58 113.021 1304.11 110.565 1303.52 109.099C1302.42 106.306 1301.74 102.804 1301.83 100.329C1302.04 94.8173 1304.7 89.2295 1308.94 85.4595C1310.2 84.3426 1312.79 82.7983 1314.49 82.1504C1320.79 79.7524 1326.34 80.0607 1332.17 83.1186C1333.72 83.9233 1335.71 85.4403 1337 86.7491C1338.8 88.5962 1340.52 91.2957 1341.41 93.6552Z" fill="#D9532B"/>
<path d="M1336.75 90.901C1335.03 88.6679 1333.81 87.5533 1331.59 86.1812C1327.23 83.4839 1322.89 82.9088 1317.77 84.3594C1315.38 85.0313 1314.68 85.323 1313 86.3146C1311.41 87.2639 1310.28 88.1779 1309.21 89.4088C1308.54 90.1714 1307.03 92.3571 1307.1 92.4687C1307.12 92.5022 1306.85 93.1291 1306.51 93.8317C1305 96.9748 1304.52 100.395 1305.1 103.893C1306.25 110.865 1310.96 116.098 1317.81 118.063C1320.89 118.95 1324.88 118.81 1327.97 117.724C1332.27 116.201 1335.49 113.419 1337.73 109.281C1340.16 104.82 1340.54 100.654 1339 95.538C1338.47 93.8215 1337.58 91.964 1336.75 90.901ZM1334.85 97.2528C1336.06 101.257 1335.47 104.937 1333.06 108.632C1331.93 110.334 1331.21 110.99 1329.03 112.293C1326.8 113.624 1325.9 113.931 1323.68 114.123C1322.02 114.278 1320.74 114.183 1319.25 113.811C1314.13 112.479 1310.95 109.272 1309.61 104.064C1308.73 100.682 1309.37 97.2151 1311.46 93.9521C1313.46 90.8363 1316.96 88.5697 1320.38 88.1286C1323.73 87.7231 1327.06 88.5205 1329.88 90.4131C1332.46 92.1537 1333.93 94.1723 1334.85 97.2528Z" fill="#D9532B"/>
<path d="M131.044 16.1183C131.179 16.186 131.399 16.3381 131.517 16.4734C131.636 16.6087 132.811 18.7305 134.129 21.1989C135.448 23.6589 136.648 25.8737 136.801 26.1189C137.249 26.829 137.215 26.8205 139.573 26.9135L141.661 27.0065L142.109 26.7867C142.557 26.5669 142.608 26.4993 145.626 22.1457C147.317 19.7195 148.779 17.6146 148.889 17.4709C149.134 17.1412 149.565 16.9299 150.005 16.9299C150.369 16.9299 159.929 20.1084 160.259 20.3367C160.749 20.6832 160.851 21.089 160.758 22.3232C160.555 24.8255 160.158 29.8638 160.073 31.0219L159.972 32.3153L160.217 32.7971C160.454 33.2621 160.538 33.3382 162.195 34.4878C163.15 35.1472 164.063 35.7305 164.224 35.7812C164.917 35.9841 165.002 35.9587 170.446 33.7017C176.033 31.3854 175.873 31.4446 176.532 31.7404C176.853 31.8926 183.134 39.7037 183.261 40.1094C183.329 40.3546 183.329 40.5152 183.261 40.7603C183.194 40.9717 181.976 42.6455 179.863 45.4267C177.006 49.1969 176.558 49.831 176.473 50.1945C176.355 50.7439 176.355 50.7439 177.454 53.3645C178.426 55.7062 178.646 56.0358 179.305 56.2725C179.499 56.3402 182.044 56.8305 184.977 57.3546C190.557 58.3521 190.582 58.3606 190.954 58.8678C191.393 59.4595 192.484 69.5868 192.129 69.7982C192.078 69.832 189.652 70.728 186.744 71.7932C183.836 72.8583 181.334 73.8051 181.19 73.8897C180.632 74.2109 180.505 74.5744 179.998 77.381C179.736 78.8096 179.525 80.1537 179.525 80.382C179.525 80.644 179.601 80.9314 179.719 81.1512C179.846 81.3964 181.131 82.6475 183.878 85.2005C186.068 87.2293 187.928 89.013 188.02 89.1483C188.13 89.3258 188.181 89.5456 188.173 89.833C188.173 90.2219 187.961 90.653 186.017 94.4317C184.825 96.7226 183.751 98.7092 183.625 98.8444C183.506 98.9712 183.244 99.1234 183.05 99.1741C182.72 99.2671 182.314 99.191 177.411 98.0836C171.883 96.8325 171.688 96.8071 171.071 97.0946C170.742 97.2552 166.811 101.313 166.574 101.736C166.253 102.327 166.27 102.496 167.132 105.861C169.118 113.613 169.076 113.444 168.966 113.807C168.916 113.993 168.78 114.238 168.679 114.357C168.577 114.475 166.633 115.616 164.359 116.893C160.614 118.998 160.183 119.217 159.836 119.217C159.608 119.217 159.338 119.15 159.194 119.065C159.05 118.972 157.25 117.189 155.179 115.084C153.107 112.979 151.282 111.187 151.104 111.102C150.487 110.772 150.318 110.789 147.224 111.482C145.626 111.837 144.223 112.184 144.113 112.26C143.53 112.641 143.496 112.717 141.695 118.127C139.996 123.224 139.945 123.36 139.624 123.647C139.438 123.816 139.159 123.968 138.973 124.002C138.204 124.146 133.411 123.841 130.351 123.453C128.964 123.275 128.668 123.131 128.432 122.497C128.356 122.294 127.798 119.775 127.197 116.901C126.47 113.469 126.039 111.575 125.938 111.406C125.608 110.882 125.363 110.755 122.785 109.775C120.004 108.71 119.648 108.634 119.031 108.963C118.879 109.048 116.935 110.578 114.72 112.37C112.497 114.162 110.569 115.692 110.426 115.777C110.24 115.887 110.045 115.921 109.724 115.895C109.293 115.87 109.2 115.802 106.774 113.968C101.845 110.24 101.38 109.876 101.22 109.648C101.127 109.53 101.034 109.242 101.017 109.014C100.975 108.642 101.144 108.152 102.936 103.452C104.018 100.611 104.922 98.1597 104.939 97.9991C105.024 97.4158 104.829 97.0523 103.477 95.1925C102.75 94.2035 102.074 93.2989 101.972 93.1975C101.676 92.8678 101.169 92.648 100.696 92.6565C100.467 92.6565 97.9399 92.9101 95.091 93.2228L89.9175 93.7808L89.554 93.6202C89.3595 93.5272 89.1313 93.3835 89.0468 93.2905C88.9284 93.1552 85.9697 85.2258 85.4794 83.7296C85.2934 83.1801 85.4117 82.7151 85.8429 82.2755C86.0119 82.098 88.1084 80.5172 90.5008 78.7589C94.7951 75.6057 94.8459 75.5635 95.0572 75.0985L95.2685 74.6336L95.1671 72.8161C95.0318 70.4406 95.0149 70.3307 94.7022 69.8742C94.4486 69.5107 94.2541 69.4008 89.5202 67.0254C86.8066 65.6644 84.5326 64.4978 84.4565 64.4386C84.2705 64.278 84 63.7201 84 63.4918C84 63.1368 86.1895 53.2039 86.3247 52.9419C86.4008 52.7981 86.5952 52.5953 86.7728 52.4769C87.1278 52.2487 86.7643 52.274 95.3362 51.7245C98.6246 51.5132 98.6838 51.4963 99.1825 51.0229C99.546 50.6763 101.068 47.8106 101.127 47.3541C101.161 47.1258 101.127 46.8469 101.059 46.644C100.992 46.458 99.6897 44.2009 98.1681 41.6311C95.5137 37.1676 95.3953 36.9478 95.3953 36.542C95.4038 36.3138 95.4545 36.0348 95.5137 35.9165C95.6236 35.7051 102.699 28.4436 103.105 28.1308C103.232 28.0294 103.485 27.9533 103.781 27.9364L104.263 27.9025L109.031 30.5485C111.651 32.0025 113.951 33.2452 114.137 33.3128C114.72 33.5157 115.1 33.3889 116.673 32.5097C118.262 31.6221 118.431 31.4953 118.676 31.0134C118.896 30.5908 118.888 30.7007 119.091 24.6649C119.26 19.6773 119.268 19.4998 119.454 19.1278C119.767 18.4938 119.15 18.6798 127.772 16.6256C129.226 16.2874 130.503 16 130.604 16C130.706 16.0085 130.9 16.0592 131.044 16.1183ZM134.298 38.5202C131.974 38.8245 130.046 39.2556 128.043 39.9234C117.4 43.4401 109.251 52.6037 107.044 63.5257C106.562 65.918 106.453 67.0677 106.453 69.8489C106.444 72.4695 106.486 73.1119 106.833 75.2169C108.456 85.099 114.906 93.7892 123.943 98.2527C127.367 99.9434 130.325 100.831 134.467 101.397C135.761 101.575 140.478 101.541 141.907 101.355C149.295 100.349 155.737 97.1368 160.758 91.9464C167.935 84.5242 171.004 74.2954 169.127 64.0498C167.893 57.3123 164.232 50.8792 159.016 46.272C153.868 41.7325 147.587 39.0358 140.681 38.4103C139.404 38.2919 135.541 38.3595 134.298 38.5202Z" fill="#D9532B"/>
<circle cx="138.201" cy="69.9976" r="33.7485" fill="white"/>
<path d="M988.044 17.1183C988.179 17.186 988.399 17.3381 988.517 17.4734C988.636 17.6087 989.811 19.7305 991.129 22.1989C992.448 24.6589 993.649 26.8737 993.801 27.1189C994.249 27.829 994.215 27.8205 996.573 27.9135L998.661 28.0065L999.109 27.7867C999.558 27.5669 999.608 27.4993 1002.63 23.1457C1004.32 20.7195 1005.78 18.6146 1005.89 18.4709C1006.13 18.1412 1006.57 17.9299 1007.01 17.9299C1007.37 17.9299 1016.93 21.1084 1017.26 21.3367C1017.75 21.6832 1017.85 22.089 1017.76 23.3232C1017.56 25.8255 1017.16 30.8638 1017.07 32.0219L1016.97 33.3153L1017.22 33.7971C1017.45 34.2621 1017.54 34.3382 1019.2 35.4878C1020.15 36.1472 1021.06 36.7305 1021.22 36.7812C1021.92 36.9841 1022 36.9587 1027.45 34.7017C1033.03 32.3854 1032.87 32.4446 1033.53 32.7404C1033.85 32.8926 1040.13 40.7037 1040.26 41.1094C1040.33 41.3546 1040.33 41.5152 1040.26 41.7603C1040.19 41.9717 1038.98 43.6455 1036.86 46.4267C1034.01 50.1969 1033.56 50.831 1033.47 51.1945C1033.35 51.7439 1033.35 51.7439 1034.45 54.3645C1035.43 56.7062 1035.65 57.0358 1036.3 57.2725C1036.5 57.3402 1039.04 57.8305 1041.98 58.3546C1047.56 59.3521 1047.58 59.3606 1047.95 59.8678C1048.39 60.4595 1049.48 70.5868 1049.13 70.7982C1049.08 70.832 1046.65 71.728 1043.74 72.7932C1040.84 73.8583 1038.33 74.8051 1038.19 74.8897C1037.63 75.2109 1037.51 75.5744 1037 78.381C1036.74 79.8096 1036.52 81.1537 1036.52 81.382C1036.52 81.644 1036.6 81.9314 1036.72 82.1512C1036.85 82.3964 1038.13 83.6475 1040.88 86.2005C1043.07 88.2293 1044.93 90.013 1045.02 90.1483C1045.13 90.3258 1045.18 90.5456 1045.17 90.833C1045.17 91.2219 1044.96 91.653 1043.02 95.4317C1041.83 97.7226 1040.75 99.7092 1040.62 99.8444C1040.51 99.9712 1040.24 100.123 1040.05 100.174C1039.72 100.267 1039.31 100.191 1034.41 99.0836C1028.88 97.8325 1028.69 97.8071 1028.07 98.0946C1027.74 98.2552 1023.81 102.313 1023.57 102.736C1023.25 103.327 1023.27 103.496 1024.13 106.861C1026.12 114.613 1026.08 114.444 1025.97 114.807C1025.92 114.993 1025.78 115.238 1025.68 115.357C1025.58 115.475 1023.63 116.616 1021.36 117.893C1017.61 119.998 1017.18 120.217 1016.84 120.217C1016.61 120.217 1016.34 120.15 1016.19 120.065C1016.05 119.972 1014.25 118.189 1012.18 116.084C1010.11 113.979 1008.28 112.187 1008.1 112.102C1007.49 111.772 1007.32 111.789 1004.22 112.482C1002.63 112.837 1001.22 113.184 1001.11 113.26C1000.53 113.641 1000.5 113.717 998.695 119.127C996.996 124.224 996.945 124.36 996.624 124.647C996.438 124.816 996.159 124.968 995.973 125.002C995.204 125.146 990.411 124.841 987.351 124.453C985.964 124.275 985.668 124.131 985.432 123.497C985.356 123.294 984.798 120.775 984.197 117.901C983.47 114.469 983.039 112.575 982.938 112.406C982.608 111.882 982.363 111.755 979.785 110.775C977.004 109.71 976.649 109.634 976.031 109.963C975.879 110.048 973.935 111.578 971.72 113.37C969.497 115.162 967.569 116.692 967.426 116.777C967.24 116.887 967.045 116.921 966.724 116.895C966.293 116.87 966.2 116.802 963.774 114.968C958.845 111.24 958.38 110.876 958.22 110.648C958.127 110.53 958.034 110.242 958.017 110.014C957.975 109.642 958.144 109.152 959.936 104.452C961.018 101.611 961.922 99.1597 961.939 98.9991C962.024 98.4158 961.829 98.0523 960.477 96.1925C959.75 95.2035 959.074 94.2989 958.972 94.1975C958.676 93.8678 958.169 93.648 957.696 93.6565C957.467 93.6565 954.94 93.9101 952.091 94.2228L946.917 94.7808L946.554 94.6202C946.36 94.5272 946.131 94.3835 946.047 94.2905C945.928 94.1552 942.97 86.2258 942.479 84.7296C942.293 84.1801 942.412 83.7151 942.843 83.2755C943.012 83.098 945.108 81.5172 947.501 79.7589C951.795 76.6057 951.846 76.5635 952.057 76.0985L952.269 75.6336L952.167 73.8161C952.032 71.4406 952.015 71.3307 951.702 70.8742C951.449 70.5107 951.254 70.4008 946.52 68.0254C943.807 66.6644 941.533 65.4978 941.457 65.4386C941.271 65.278 941 64.7201 941 64.4918C941 64.1368 943.189 54.2039 943.325 53.9419C943.401 53.7981 943.595 53.5953 943.773 53.4769C944.128 53.2487 943.764 53.274 952.336 52.7245C955.625 52.5132 955.684 52.4963 956.183 52.0229C956.546 51.6763 958.068 48.8106 958.127 48.3541C958.161 48.1258 958.127 47.8469 958.059 47.644C957.992 47.458 956.69 45.2009 955.168 42.6311C952.514 38.1676 952.395 37.9478 952.395 37.542C952.404 37.3138 952.455 37.0348 952.514 36.9165C952.624 36.7051 959.699 29.4436 960.105 29.1308C960.232 29.0294 960.485 28.9533 960.781 28.9364L961.263 28.9025L966.031 31.5485C968.651 33.0025 970.951 34.2452 971.137 34.3128C971.72 34.5157 972.101 34.3889 973.673 33.5097C975.262 32.6221 975.431 32.4953 975.676 32.0134C975.896 31.5908 975.888 31.7007 976.091 25.6649C976.26 20.6773 976.268 20.4998 976.454 20.1278C976.767 19.4938 976.15 19.6798 984.772 17.6256C986.226 17.2874 987.503 17 987.604 17C987.706 17.0085 987.9 17.0592 988.044 17.1183ZM991.298 39.5202C988.974 39.8245 987.046 40.2556 985.043 40.9234C974.4 44.4401 966.251 53.6037 964.044 64.5257C963.562 66.918 963.453 68.0677 963.453 70.8489C963.444 73.4695 963.486 74.1119 963.833 76.2169C965.456 86.099 971.906 94.7892 980.943 99.2527C984.367 100.943 987.325 101.831 991.468 102.397C992.761 102.575 997.478 102.541 998.907 102.355C1006.29 101.349 1012.74 98.1368 1017.76 92.9464C1024.93 85.5242 1028 75.2954 1026.13 65.0498C1024.89 58.3123 1021.23 51.8792 1016.02 47.272C1010.87 42.7325 1004.59 40.0358 997.681 39.4103C996.404 39.2919 992.541 39.3595 991.298 39.5202Z" fill="#D9532B"/>
<circle cx="995.201" cy="70.9976" r="33.7485" fill="white"/>
</svg>

